<svg width="75" height="64" viewBox="0 0 75 64" fill="none" xmlns="http://www.w3.org/2000/svg">
<path d="M17.7797 0.00148792C18.1389 0.000751403 18.1389 0.000751403 18.5053 0C18.7525 0.00605585 18.9997 0.0121117 19.2544 0.0183511C19.5025 0.0155686 19.7507 0.0127862 20.0064 0.00991949C21.8075 0.0284104 21.8075 0.0284105 22.5559 0.581592C23.1018 1.33627 23.1209 1.78927 23.1388 2.72042C23.1469 3.01503 23.1549 3.30964 23.1632 3.61317C23.1668 3.91957 23.1703 4.22596 23.174 4.54164C23.1814 4.85196 23.1888 5.16228 23.1964 5.48201C23.2141 6.24781 23.2272 7.01341 23.2364 7.77936C23.9668 8.00982 24.156 8.06829 24.8878 7.74762C25.2762 7.51193 25.2762 7.51193 25.6725 7.27148C25.8188 7.18345 25.9652 7.09541 26.1159 7.00471C26.6583 6.67526 27.1962 6.33922 27.7338 6.00179C27.9666 5.85575 28.1995 5.70972 28.4393 5.55925C29.7201 4.75351 30.998 3.94308 32.2732 3.12811C32.5142 2.97487 32.7552 2.82164 33.0036 2.66376C33.4984 2.34303 33.9883 2.01439 34.4736 1.679C34.8309 1.4349 34.8309 1.4349 35.1953 1.18588C35.4063 1.03794 35.6174 0.889998 35.8349 0.737576C36.6158 0.346486 37.1165 0.324583 37.9778 0.415131C38.4895 0.603911 38.4895 0.603911 38.9499 0.872419C39.1246 0.972443 39.2993 1.07247 39.4793 1.17552C39.7564 1.34121 39.7564 1.34121 40.0391 1.51024C40.3361 1.68305 40.3361 1.68305 40.639 1.85935C42.5462 2.97703 44.4217 4.14737 46.2943 5.32354C47.6722 6.18546 49.0561 7.03733 50.4393 7.89046C50.591 7.98408 50.7427 8.0777 50.899 8.17416C52.7519 9.31753 54.6071 10.457 56.467 11.5884C59.4892 13.4275 62.5001 15.2855 65.5081 17.1484C65.964 17.4306 66.4201 17.7125 66.8762 17.9943C67.6182 18.4529 68.3594 18.9126 69.1001 19.3732C69.5089 19.6271 69.9183 19.88 70.3277 20.1328C74.1127 22.4915 74.1127 22.4915 74.9562 23.7775C74.9562 24.0289 74.9562 24.2803 74.9562 24.5393C73.6603 25.3343 72.5858 25.434 71.1147 25.4757C70.907 25.4844 70.6993 25.4931 70.4852 25.502C69.9768 25.5228 69.4683 25.5394 68.9597 25.5551C68.629 26.2273 68.678 26.7314 68.6771 27.4844C68.6761 27.7867 68.6751 28.089 68.674 28.4004C68.6742 28.7338 68.6743 29.0671 68.6744 29.4106C68.6737 29.7639 68.6728 30.1172 68.6718 30.4704C68.6698 31.2323 68.6686 31.9941 68.6677 32.7559C68.6663 33.9606 68.6621 35.1653 68.6574 36.37C68.6558 36.7822 68.6542 37.1945 68.6527 37.6068C68.6519 37.8133 68.6511 38.0197 68.6503 38.2325C68.6398 41.0377 68.6315 43.8429 68.6285 46.6482C68.6264 48.5396 68.6207 50.431 68.6111 52.3223C68.6062 53.3234 68.6031 54.3244 68.6043 55.3255C68.6055 56.2675 68.602 57.2093 68.5951 58.1512C68.5925 58.6613 68.5949 59.1715 68.5975 59.6816C68.5943 59.986 68.5912 60.2904 68.588 60.6041C68.5871 61.0002 68.5871 61.0002 68.5862 61.4043C68.4264 62.3136 68.093 62.7393 67.4606 63.392C66.1354 63.841 64.7088 63.7234 63.3209 63.7348C62.9484 63.739 62.576 63.746 62.2036 63.7557C61.6639 63.7696 61.1246 63.7751 60.5847 63.7789C60.2624 63.7839 59.9401 63.7889 59.608 63.7941C58.7361 63.6493 58.1471 63.4736 57.4968 62.8457C56.8605 61.7797 57.0173 60.4733 57.0331 59.2665C57.0309 58.9611 57.0286 58.6557 57.0263 58.341C57.0203 57.3635 57.0243 56.3863 57.0292 55.4088C57.0288 54.4395 57.0263 53.4703 57.0214 52.5011C57.0189 51.8987 57.0192 51.2964 57.023 50.694C57.0221 48.6241 56.7947 46.6418 56.467 44.6005C56.4164 44.2451 56.366 43.8896 56.3158 43.5342C55.4415 38.2089 53.006 33.4149 50.6094 28.6461C50.4972 28.4225 50.385 28.1989 50.2695 27.9685C50.1697 27.772 50.0699 27.5754 49.967 27.3729C49.3436 25.9842 49.3106 24.5185 49.4711 23.0157C49.8113 22.185 50.3464 21.6182 50.9702 20.9842C52.9343 20.7777 54.1388 21.4031 55.7175 22.5396C55.8824 22.6967 56.0473 22.8538 56.2172 23.0157C56.2172 23.1833 56.2172 23.3509 56.2172 23.5236C56.3821 23.5236 56.547 23.5236 56.7169 23.5236C56.5066 21.106 56.1513 19.4691 54.3277 17.8427C53.0827 16.9637 51.6801 16.9099 50.2207 17.1751C48.8668 17.7318 47.6822 18.5289 46.5041 19.3971C44.9475 20.5362 43.6005 20.6507 41.7256 20.4763C41.2852 20.3614 40.8476 20.2342 40.4139 20.0954C38.1232 19.395 35.7486 19.4175 33.5234 20.3017C32.2535 20.7103 30.8921 20.7374 29.6458 20.2442C29.0706 19.9246 28.5292 19.576 27.9837 19.2066C25.0842 17.3316 25.0842 17.3316 21.7373 17.1751C20.9574 17.5743 20.3606 18.0802 19.7385 18.6987C19.6058 18.8303 19.4731 18.9619 19.3364 19.0975C18.3773 20.231 18.3777 21.2633 18.4453 22.7211C18.4598 22.9021 18.4743 23.0831 18.4892 23.2696C18.6818 23.1259 18.8744 22.9822 19.0728 22.8342C19.3234 22.6479 19.574 22.4617 19.8322 22.2698C20.0815 22.0841 20.3307 21.8985 20.5876 21.7073C21.6181 20.9635 22.209 20.8544 23.4863 20.9842C24.23 21.4344 24.8425 21.9634 25.2353 22.7618C25.2795 23.2683 25.3021 23.777 25.3133 24.2854C25.3274 24.6939 25.3274 24.6939 25.3417 25.1107C25.0804 27.4493 23.7829 29.5726 22.7651 31.6514C21.6229 33.9932 20.5196 36.3341 19.676 38.8075C19.6104 38.9998 19.5447 39.1921 19.4771 39.3902C18.1978 43.3405 17.9579 47.4839 17.9387 51.6126C17.9371 51.9157 17.9355 52.2188 17.9338 52.5311C17.9286 53.7909 17.9255 55.0506 17.932 56.3104C17.9357 57.2417 17.9301 58.1725 17.9231 59.1038C17.927 59.3884 17.9308 59.673 17.9348 59.9663C17.9111 61.8757 17.9111 61.8757 17.42 62.5818C15.8963 63.9261 14.0856 63.7272 12.1938 63.7488C11.8317 63.7543 11.4697 63.7629 11.1078 63.7748C10.5835 63.7919 10.0599 63.7988 9.53545 63.8037C9.22227 63.81 8.90909 63.8164 8.58642 63.8229C7.68911 63.6341 7.31522 63.3987 6.75496 62.6667C6.17109 61.4383 6.32979 60.0088 6.34334 58.6746C6.34246 58.3228 6.34101 57.9711 6.33905 57.6194C6.33602 56.864 6.33687 56.1088 6.34076 55.3535C6.34684 54.1595 6.34396 52.9656 6.33984 51.7716C6.33373 49.6691 6.33517 47.5666 6.33829 45.4641C6.34294 42.2959 6.34174 39.1277 6.33329 35.9594C6.33041 34.7721 6.33153 33.5848 6.33579 32.3974C6.33776 31.6599 6.33671 30.9224 6.33487 30.1849C6.33457 29.679 6.33803 29.173 6.34159 28.667C6.34027 28.3669 6.33894 28.0668 6.33757 27.7576C6.33804 27.4962 6.33851 27.2349 6.339 26.9656C6.29471 26.3128 6.29471 26.3128 5.92577 25.8524C5.17839 25.3344 4.28092 25.4387 3.40426 25.4281C2.05707 25.4118 1.12318 25.3944 0 24.5393C0.0274587 23.5905 0.246368 23.2733 0.905721 22.5872C3.26984 20.6728 5.91978 19.0888 8.45661 17.4243C12.352 15.2212 12.352 15.2212 14.9912 11.8424C15.0901 11.0472 15.0838 10.2613 15.0752 9.46071C15.0783 8.99698 15.0816 8.53324 15.0849 8.06951C15.0859 7.34339 15.0849 6.61736 15.0813 5.89125C15.0791 5.18697 15.0846 4.48307 15.0908 3.77883C15.0875 3.56242 15.0841 3.34602 15.0807 3.12305C15.094 2.0367 15.1474 1.56153 15.7946 0.659274C16.5436 0.123064 16.8774 0.000723658 17.7797 0.00148792Z" fill="#4F3D38"/>
<path d="M37.2125 29.507C37.4436 29.5052 37.6747 29.5034 37.9128 29.5016C39.8257 29.5193 41.787 29.7963 43.3808 30.9513C43.9742 31.6497 43.9742 31.6497 44.1616 32.475C43.7189 34.7248 42.0271 36.4499 40.2264 37.7442C39.6459 38.0039 39.0631 38.2585 38.4774 38.506C38.4484 40.4662 38.4263 42.4264 38.4127 44.3868C38.4062 45.2972 38.3974 46.2074 38.3832 47.1177C38.3696 47.997 38.3621 48.8761 38.3589 49.7555C38.3555 50.2526 38.3457 50.7497 38.3359 51.2467C38.2895 53.0983 38.2895 53.0983 39.0764 54.6991C39.6329 55.1842 40.0915 55.552 40.7573 55.8532C41.0057 55.9696 41.0057 55.9696 41.259 56.0883C43.1607 56.8768 45.8664 56.9156 47.7845 56.1072C49.5481 55.1242 50.0609 53.5466 50.7203 51.7108C51.215 51.8365 51.215 51.8365 51.7197 51.9648C51.844 53.4805 51.5742 54.5142 50.7203 55.7739C49.5673 57.0911 48.1624 57.9004 46.4298 58.1318C45.8693 58.1611 45.3161 58.1652 44.755 58.1545C44.4586 58.1507 44.4586 58.1507 44.1562 58.1467C41.5191 58.0757 39.6713 57.2394 37.478 55.7739C37.3627 55.875 37.2474 55.9762 37.1286 56.0804C34.4993 58.2509 31.5086 58.3883 28.2334 58.0593C26.5299 57.6735 25.1374 56.5765 23.9859 55.266C23.3827 54.3012 23.1337 53.3662 23.2363 52.2187C23.731 51.9673 23.731 51.9673 24.2357 51.7108C24.4868 52.2075 24.7364 52.7049 24.9853 53.2027C25.194 53.6181 25.194 53.6181 25.4069 54.0419C25.7349 54.7581 25.7349 54.7581 25.7349 55.266C28.1041 56.5218 30.6244 56.9783 33.2549 56.3512C34.6231 55.8908 35.5818 55.4047 36.4786 54.2502C36.8135 53.5694 36.7584 53.0483 36.7568 52.286C36.7568 51.981 36.7568 51.676 36.7568 51.3618C36.7555 51.0311 36.7542 50.7005 36.7528 50.3598C36.7524 50.0189 36.752 49.678 36.7518 49.3372C36.7508 48.4396 36.7484 47.542 36.7456 46.6445C36.7431 45.7287 36.7419 44.813 36.7406 43.8972C36.738 42.1002 36.7337 40.3031 36.7284 38.506C36.5386 38.4023 36.3487 38.2986 36.153 38.1917C35.9046 38.0551 35.6561 37.9186 35.4001 37.7779C35.1536 37.6428 34.907 37.5076 34.6529 37.3684C33.0806 36.4664 31.5562 35.2174 30.9818 33.4272C30.8569 32.6495 30.8569 32.6495 30.9818 31.9036C32.5059 29.8049 34.8084 29.4545 37.2125 29.507Z" fill="#4F3D38"/>
<path d="M38.9771 25.0472C39.8009 25.131 40.1321 25.2054 40.7261 25.8091C40.5873 26.9659 40.5873 26.9659 40.2264 27.3327C39.4924 27.3803 39.4924 27.3803 38.7272 27.3327C38.5623 27.1651 38.3974 26.9975 38.2275 26.8248C38.3099 25.9875 38.3831 25.6509 38.9771 25.0472Z" fill="#4F3D38"/>
<path d="M35.4948 25.1106C35.9789 25.3011 35.9789 25.3011 36.4786 25.809C36.3849 26.6025 36.3849 26.6025 36.2288 27.3326C35.5104 27.4913 35.5104 27.4913 34.7296 27.5865C34.2299 27.0786 34.2299 27.0786 34.1519 26.3168C34.1776 26.0654 34.2034 25.814 34.2299 25.555C34.9795 25.0471 34.9795 25.0471 35.4948 25.1106Z" fill="#4F3D38"/>
<path d="M41.4758 51.9647C41.9911 52.0758 41.9911 52.0758 42.4752 52.2187C42.3927 52.6377 42.3103 53.0567 42.2253 53.4884C41.8131 53.4046 41.4008 53.3208 40.9761 53.2344C41.1947 52.2504 41.1947 52.2504 41.4758 51.9647Z" fill="#4F3D38"/>
<path d="M33.2307 51.9647C33.746 52.0758 33.746 52.0758 34.2301 52.2187C34.1476 52.6377 34.0652 53.0567 33.9802 53.4884C33.568 53.4046 33.1557 53.3208 32.731 53.2344C32.9496 52.2504 32.9496 52.2504 33.2307 51.9647Z" fill="#4F3D38"/>
<path d="M45.7235 52.2186C46.1421 52.2913 46.559 52.3755 46.9728 52.4726C46.8903 52.8078 46.8079 53.143 46.7229 53.4883C46.3931 53.5721 46.0633 53.6559 45.7235 53.7423C45.628 53.3217 45.5451 52.898 45.4736 52.4726C45.5561 52.3888 45.6385 52.305 45.7235 52.2186Z" fill="#4F3D38"/>
<path d="M28.7333 52.2186C29.0631 52.2186 29.3929 52.2186 29.7327 52.2186C29.8888 52.6948 29.8888 52.6948 29.9825 53.2344C29.8176 53.402 29.6527 53.5696 29.4828 53.7423C28.9519 53.647 28.9519 53.647 28.4834 53.4883C28.5659 53.0693 28.6483 52.6503 28.7333 52.2186Z" fill="#4F3D38"/>
<path d="M43.9745 48.9175C44.3867 48.9175 44.799 48.9175 45.2237 48.9175C45.1413 49.3365 45.0588 49.7555 44.9739 50.1872C44.5616 50.1034 44.1494 50.0196 43.7246 49.9332C43.8071 49.598 43.8895 49.2628 43.9745 48.9175Z" fill="#4F3D38"/>
<path d="M30.2323 48.9175C30.6445 49.0013 31.0568 49.0851 31.4815 49.1714C31.3991 49.5066 31.3166 49.8418 31.2317 50.1872C30.8194 50.1034 30.4072 50.0196 29.9824 49.9332C30.0649 49.598 30.1473 49.2628 30.2323 48.9175Z" fill="#4F3D38"/>
</svg>
