<svg width="359" height="359" viewBox="0 0 359 359" fill="none" xmlns="http://www.w3.org/2000/svg">
<g clip-path="url(#clip0_111_101)">
<path d="M32.4409 0.411448C32.5157 0.65452 33.1514 1.81379 33.8619 3.01046C37.0032 8.28327 37.3584 9.76041 36.9284 15.725C36.7975 17.6883 36.8349 18.0436 37.1902 19.2216C37.9568 21.7645 39.5274 23.1107 41.5094 22.9237C45.1368 22.5872 51.8306 16.8469 53.9996 12.1911C54.467 11.2001 54.5044 10.9384 54.5044 8.69462C54.5044 6.80613 54.4296 6.03952 54.1492 5.23551C53.663 3.83317 52.8403 2.15035 52.0363 0.972385L51.3632 9.34601e-05H41.8459H32.3287L32.4409 0.411448Z" fill="#4F3D38"/>
<path d="M55.0654 0.299302C56.5051 1.38378 60.5625 1.40248 63.012 0.317999C63.629 0.0562286 63.3859 0.0375307 59.1789 0.0188328C55.1588 0.0188328 54.7288 0.0375307 55.0654 0.299302Z" fill="#4F3D38"/>
<path d="M145.844 0.691795C144.516 2.31851 144.759 4.03872 146.479 5.19799C148.686 6.67513 152.556 7.12388 154.632 6.15159C156.502 5.27278 157.511 3.83305 157.511 2.03804C157.53 1.34622 157.418 0.841378 157.193 0.504816L156.876 -2.81334e-05H151.64H146.423L145.844 0.691795Z" fill="#4F3D38"/>
<path d="M209.117 0.673355C208.669 1.73914 208.575 3.51544 208.912 4.69341C209.735 7.49809 212.651 8.15252 215.905 6.26403C217.924 5.08606 219.85 2.58054 220.187 0.692053L220.299 0.000229836H214.858H209.398L209.117 0.673355Z" fill="#4F3D38"/>
<path d="M222.973 1.04684C223.571 2.41179 224.805 4.1133 226.17 5.47824C228.096 7.42283 230.994 8.45121 235.631 8.82517C238.455 9.06824 241.334 8.86257 242.905 8.32033C244.644 7.72199 246.046 6.00179 246.065 4.48725C246.065 3.55236 245.298 2.03783 244.27 0.934649L243.391 -0.000246048H232.957H222.505L222.973 1.04684Z" fill="#4F3D38"/>
<path d="M323.287 0.785298C323.287 2.87946 325.718 4.41269 329.383 4.61837C331.439 4.74926 332.748 4.41269 333.982 3.4778C334.88 2.78597 335.815 1.23405 335.815 0.430037V-1.4782e-05H329.551H323.287V0.785298Z" fill="#4F3D38"/>
<path d="M63.442 1.58926C61.03 2.1315 58.2627 4.15087 57.3278 6.02066C56.2994 8.09613 56.8978 10.6951 58.6554 11.7235C59.4781 12.191 59.7211 12.2471 61.3292 12.2471C62.7502 12.2471 63.3485 12.1536 64.3208 11.7983C67.9482 10.4147 70.0424 5.29144 68.023 2.71113C67.1629 1.62665 65.3118 1.15921 63.442 1.58926Z" fill="#4F3D38"/>
<path d="M343.574 1.60787C339.61 2.09401 334.655 4.09469 331.608 6.41323C328.878 8.5074 327.475 12.3592 327.961 16.3979C328.242 18.6043 328.429 19.2961 329.233 20.848C330.934 24.1202 337.273 28.8133 341.2 29.7295C343.032 30.1596 344.995 29.5052 345.874 28.1776C346.304 27.5232 346.379 27.2427 346.379 26.0086C346.36 25.2233 346.173 23.5966 345.949 22.3626C345.444 19.6514 345.388 16.2296 345.837 14.5094C345.986 13.8924 346.585 12.5275 347.127 11.4804C347.688 10.4333 348.267 9.10573 348.436 8.4887C348.959 6.46933 348.716 4.30037 347.8 3.02891C347.108 2.05662 345.201 1.42089 343.574 1.60787Z" fill="#4F3D38"/>
<path d="M162.765 4.30053C161.849 4.50621 160.447 4.88017 159.68 5.16063C157.81 5.81506 154.613 7.46048 153.192 8.48886C150.425 10.5082 148.948 14.4722 149.415 18.6792C149.733 21.5774 150.668 23.5781 152.687 25.747C154.632 27.8038 158.521 30.515 161.045 31.5434C162.634 32.1978 164.673 32.2352 165.794 31.6556C167.533 30.7207 168.076 28.8696 167.44 25.9901C167.29 25.317 167.066 23.6716 166.954 22.344C166.58 18.4549 167.01 16.6412 169.104 12.9951C170.282 10.957 170.656 8.32058 170.039 6.48819C169.684 5.4598 168.599 4.41272 167.589 4.13225C166.542 3.83308 164.673 3.90788 162.765 4.30053Z" fill="#4F3D38"/>
<path d="M319.024 4.39407C317.659 4.76803 317.135 5.08589 315.939 6.17037C313.994 7.94667 313.358 10.2278 314.331 11.9854C314.686 12.6399 315.041 12.939 316.032 13.4439C317.173 14.0235 317.416 14.0796 319.024 14.0796C321.623 14.0796 323.624 13.4065 325.194 12.0041C326.223 11.0879 326.653 10.0969 326.653 8.6385C326.653 6.54433 325.792 5.49725 323.38 4.69324C321.791 4.16969 320.221 4.05751 319.024 4.39407Z" fill="#4F3D38"/>
<path d="M279.16 5.47824C278.206 5.7774 276.804 7.25454 276.542 8.24553C276.224 9.4235 276.411 10.7698 277.103 12.0599C277.496 12.8078 277.664 13.3314 277.589 13.6492C277.402 14.5841 269.53 29.5986 269.063 29.9538C268.801 30.1408 268.128 30.3465 267.567 30.4026C267.006 30.4774 266.146 30.7391 265.66 31.0009C263.304 32.2537 262.781 35.5258 264.594 37.4891C265.604 38.5736 266.333 38.8914 267.885 38.9101H269.157L269.717 39.7889C270.783 41.453 272.56 42.1449 274.373 41.6213C276.355 41.0417 277.533 39.4898 277.533 37.4891C277.533 36.3485 277.346 35.8063 276.449 34.4787C276.187 34.1048 275.981 33.5812 275.981 33.3381C275.981 32.9642 279.291 26.289 283.012 19.1651C284.152 16.9775 284.564 16.6409 286.097 16.6409C287.462 16.6409 288.883 15.9117 289.668 14.8272C290.117 14.2289 290.248 13.7988 290.323 12.8452C290.453 11.3307 290.173 10.4519 289.201 9.4048C288.322 8.43251 286.882 7.92767 285.592 8.11465C284.788 8.20813 284.769 8.20813 284.395 7.49762C283.479 5.66522 281.254 4.82381 279.16 5.47824Z" fill="#4F3D38"/>
<path d="M140.29 6.26389C137.897 7.01181 135.728 9.33035 135.448 11.4806C135.223 13.0512 136.196 14.6593 137.804 15.3885C139.075 15.9681 142.272 15.9494 144.067 15.3698C145.638 14.8462 146.966 13.93 147.657 12.8643C148.088 12.2472 148.181 11.8359 148.237 10.7327C148.312 9.51733 148.256 9.25556 147.826 8.50764C146.741 6.67525 142.759 5.47858 140.29 6.26389Z" fill="#4F3D38"/>
<path d="M101.623 6.43197C99.2486 7.46035 98.3511 10.1155 99.5477 12.6023C99.9778 13.5185 100.053 13.8176 99.903 14.2851C99.7908 14.603 98.0519 17.5946 96.0138 20.9416C90.7036 29.6548 90.741 29.6174 90.2736 29.8979C90.0492 30.0474 89.2452 30.2157 88.4973 30.2905C86.1039 30.5336 84.5707 31.9172 84.365 34.0488C84.1219 36.6665 85.8982 38.6859 88.5159 38.7981C89.6004 38.8355 89.6378 38.8542 89.9931 39.5647C90.8158 41.2288 92.0312 41.958 93.8636 41.958C97.3788 41.958 99.2486 38.4428 97.4349 35.2642C97.117 34.7219 96.8552 34.0675 96.8552 33.8431C96.8552 33.3196 105.924 18.3799 106.391 18.1369C106.578 18.0247 107.27 17.9499 107.924 17.9499C109.364 17.9499 110.168 17.7442 111.103 17.0898C112.973 15.7996 113.384 12.9762 112.001 11.0691C111.29 10.0781 109.813 9.34884 108.504 9.34884H107.513L107.064 8.45134C106.522 7.38556 106.185 7.049 105.082 6.56285C104.11 6.11411 102.483 6.05801 101.623 6.43197Z" fill="#4F3D38"/>
<path d="M219.794 6.37612C214.054 7.10534 211.23 11.705 214.671 14.6593C215.942 15.7251 217.251 16.1551 219.327 16.1738C220.935 16.1738 221.215 16.1177 222.225 15.6129C223.552 14.9398 225.385 13.1822 225.89 12.0977C226.581 10.5645 226.226 9.14341 224.842 7.74107C223.59 6.48831 222.094 6.09565 219.794 6.37612Z" fill="#4F3D38"/>
<path d="M231.162 10.5458C228.283 11.6116 225.665 14.5846 225.927 16.5105C226.077 17.5388 226.563 18.1372 227.834 18.7916C228.881 19.3338 229.031 19.3525 231.275 19.3525C233.294 19.3525 233.761 19.2964 234.509 18.9412C236.51 18.025 238.043 15.9495 238.062 14.1358C238.099 10.9759 234.715 9.21827 231.162 10.5458Z" fill="#4F3D38"/>
<path d="M58.3375 13.9487C56.1685 14.3226 55.5141 14.4909 54.5979 14.9584C52.0737 16.2485 50.7649 19.0158 51.681 21.1848C52.5972 23.3911 56.0751 24.2512 58.805 22.9237C61.0674 21.8205 63.012 19.1841 63.1616 17.0338C63.2364 15.7063 62.7689 14.9023 61.6283 14.3974C60.8056 14.0235 59.1602 13.7991 58.3375 13.9487Z" fill="#4F3D38"/>
<path d="M316.799 15.5193C315.808 15.7437 314.836 16.3607 314.237 17.0899C313.695 17.7444 313.658 17.9126 313.658 19.2215C313.676 20.9043 313.994 21.6335 315.34 23.1481C317.079 25.0926 319.66 25.8219 322.446 25.1674C325.063 24.5504 326.073 23.522 326.241 21.3157C326.353 19.745 325.905 18.6793 324.689 17.6135C322.726 15.8933 319.192 14.9397 316.799 15.5193Z" fill="#4F3D38"/>
<path d="M137.243 17.5759C135.616 18.3425 134.962 19.2961 134.943 20.9415C134.943 22.3625 135.635 23.8397 136.925 25.1298C138.682 26.8874 140.571 27.5045 143.039 27.1305C145.788 26.7004 147.115 25.7282 147.545 23.8584C148.106 21.2967 146.479 19.0343 143.133 17.7628C141.468 17.1271 138.402 17.0336 137.243 17.5759Z" fill="#4F3D38"/>
<path d="M184.53 20.8106C182.735 21.4837 181.744 22.9422 181.744 24.8868C181.744 25.7656 181.725 25.803 180.958 26.1395C179.332 26.8687 178.378 28.3272 178.378 30.1035C178.378 31.431 178.864 32.4594 179.855 33.3195C181.239 34.4975 183.071 34.7032 184.735 33.8431C185.857 33.2634 186.381 33.3569 188.12 34.4601C196.777 39.9012 201.62 43.1172 201.863 43.5847C202.012 43.8838 202.124 44.5196 202.124 45.0057C202.124 46.352 202.442 47.2495 203.209 48.0909C204.106 49.0819 205.116 49.5493 206.425 49.5493C208.893 49.5493 210.726 47.6608 210.726 45.1179C210.726 44.37 210.782 44.2952 211.436 44.0334C214.297 42.8181 214.933 39.1346 212.633 36.9656C211.081 35.5259 209.417 35.395 207.248 36.5543C206.762 36.816 206.182 37.0217 205.958 37.0217C205.565 37.0217 203.471 35.7316 193.86 29.5425C190.233 27.224 189.99 26.9622 190.251 25.4477C190.513 23.8958 189.616 22.0447 188.195 21.222C187.185 20.6236 185.539 20.4367 184.53 20.8106Z" fill="#4F3D38"/>
<path d="M326.69 25.7098C325.026 26.009 323.474 26.7382 322.819 27.5048C322.464 27.9536 322.352 28.2901 322.352 29.0006C322.352 30.2347 322.838 31.1322 324.128 32.3102C327.008 34.9466 330.897 35.3392 333.29 33.2451C334.337 32.3102 334.693 31.581 334.693 30.2908C334.693 26.9813 331.009 24.8871 326.69 25.7098Z" fill="#4F3D38"/>
<path d="M147.433 27.7667C145.002 28.2902 143.75 29.1877 143.488 30.5714C143.17 32.2542 145.04 34.6101 147.657 35.8629C148.985 36.4986 149.247 36.5547 150.705 36.5547C152.594 36.5547 153.566 36.162 154.744 34.928C156.09 33.5256 156.258 32.2916 155.361 30.5153C154.688 29.1316 153.716 28.365 152.033 27.8602C150.687 27.4301 149.078 27.3927 147.433 27.7667Z" fill="#4F3D38"/>
<path d="M0 37.9568C0 41.5468 0.0373958 44.501 0.0934896 44.501C0.168281 44.501 0.467448 44.3701 0.785313 44.2019C1.12188 44.0336 1.57063 43.9401 1.86979 44.0149C2.52422 44.1271 16.5851 52.8029 17.1647 53.4199C17.5199 53.8126 17.576 54.0744 17.576 55.3271C17.576 56.5799 17.6508 56.9538 18.0996 57.7953C18.8101 59.1602 19.9694 59.8894 21.5774 59.9829C24.1016 60.1512 25.9901 58.4123 26.1023 55.832C26.1584 54.7662 26.1584 54.7288 26.8689 54.4109C27.2616 54.2427 27.8973 53.7565 28.2713 53.3265C30.1223 51.2697 29.524 47.9975 27.0559 46.7074C25.9714 46.1278 24.139 46.1278 23.0545 46.7074C21.8953 47.3244 21.2221 47.2496 19.7076 46.3147C11.8919 41.6216 5.92724 37.8072 5.72156 37.3958C5.59068 37.1341 5.4224 36.3674 5.3663 35.6756C5.12323 33.0018 3.49651 31.4125 1.02839 31.4125H0V37.9568Z" fill="#4F3D38"/>
<path d="M357.729 32.1043C356.382 33.0205 355.821 34.0863 355.821 35.7317C355.821 36.6292 355.821 36.6479 354.886 37.1154C352.531 38.312 351.82 41.2289 353.335 43.4166C354.12 44.5758 355.298 45.1555 356.756 45.1368C357.429 45.1368 358.196 45.0246 358.495 44.9124L359 44.688V38.1437C359 32.7774 358.963 31.5995 358.757 31.5995C358.607 31.5995 358.159 31.8239 357.729 32.1043Z" fill="#4F3D38"/>
<path d="M56.5238 41.3038C54.6166 41.9582 53.4013 43.0614 52.5038 44.9873C51.3445 47.4554 51.4006 49.0821 52.672 50.391C54.5044 52.2795 57.3278 52.2608 60.1512 50.3349C64.3956 47.4554 65.1249 43.024 61.6096 41.3973C60.413 40.8363 58.001 40.7802 56.5238 41.3038Z" fill="#4F3D38"/>
<path d="M45.1181 42.5192C42.8556 43.0802 40.855 44.576 39.864 46.4458C39.4526 47.2311 39.3591 47.6612 39.3591 48.8017C39.3591 50.7089 39.9388 51.7373 41.4159 52.4665C42.3134 52.8966 42.6126 52.9527 43.7157 52.8779C45.2677 52.7657 46.3148 52.2608 47.5862 50.9707C49.2503 49.3066 50.5405 46.1092 50.2226 44.4264C49.8861 42.6314 47.8293 41.8648 45.1181 42.5192Z" fill="#4F3D38"/>
<path d="M237.22 45.8285C234.621 46.4455 232.658 48.6144 231.948 51.6622C231.536 53.4198 231.854 54.4108 233.126 55.5701C234.098 56.4489 234.977 56.7293 236.529 56.6172C238.193 56.4863 239.782 55.6636 241.409 54.0368C244.7 50.7834 244.606 47.0999 241.166 45.8846C240.343 45.6041 238.342 45.5667 237.22 45.8285Z" fill="#4F3D38"/>
<path d="M130.306 46.5204C128.829 47.287 128.193 48.278 128.118 49.9795L128.043 51.3258L127.09 51.8867C125.669 52.7094 125.033 53.7565 124.939 55.3271C124.883 56.3929 124.939 56.7295 125.332 57.5335C125.893 58.6367 126.903 59.4594 128.062 59.7585C129.147 60.0203 129.969 59.9268 131.241 59.3472C131.783 59.1041 132.475 58.8984 132.774 58.8984C133.484 58.8984 148.387 67.5743 148.817 68.2287C148.966 68.4905 149.153 69.2571 149.228 69.9676C149.378 71.5943 150.069 72.7723 151.341 73.5763C152.145 74.0625 152.444 74.1372 153.491 74.1185C156.128 74.0998 157.81 72.3422 157.81 69.5936C157.81 68.7896 157.867 68.6401 158.24 68.5466C158.465 68.4905 158.97 68.1913 159.362 67.8547C161.999 65.6671 161.157 61.4227 157.885 60.4691C156.576 60.0951 155.623 60.226 154.314 60.9552C153.772 61.2731 153.042 61.5162 152.706 61.5162C152.238 61.5162 150.331 60.4878 144.703 57.1969C140.646 54.8223 137.168 52.7281 136.962 52.5225C136.663 52.2233 136.588 51.8867 136.551 50.6714C136.513 48.9138 136.046 47.7545 135.111 47.0253C133.578 45.8473 131.914 45.679 130.306 46.5204Z" fill="#4F3D38"/>
<path d="M66.3028 46.8755C64.4704 47.343 62.208 50.0542 61.4414 52.7093C60.7682 55.0465 61.1235 56.8976 62.5258 58.2626C64.2461 59.9267 65.8167 59.9828 68.1352 58.4309C69.3693 57.6268 70.3229 56.5611 70.9025 55.3644C71.2765 54.6352 71.3326 54.2051 71.3326 52.4475C71.3326 50.6899 71.2765 50.2599 70.9025 49.4559C69.9489 47.3991 68.1726 46.4081 66.3028 46.8755Z" fill="#4F3D38"/>
<path d="M225.254 47.7546C221.757 48.7643 219.682 51.0454 219.551 54.0371C219.476 55.776 219.944 56.8231 221.159 57.6832C221.907 58.188 222.113 58.2441 223.496 58.2441C225.329 58.2441 226.17 57.8702 227.591 56.4491C228.713 55.3273 229.928 52.8965 230.209 51.195C230.396 50.0918 230.396 49.9049 230.022 49.157C229.797 48.6895 229.367 48.166 229.031 47.979C228.283 47.5302 226.413 47.418 225.254 47.7546Z" fill="#4F3D38"/>
<path d="M246.626 51.2135C245.242 51.6622 243.783 52.9711 242.849 54.5978C241.745 56.505 241.297 59.291 241.801 60.9738C241.914 61.3851 242.306 62.0396 242.662 62.4509C244.083 64.1337 245.952 64.4142 247.86 63.2736C250.122 61.9087 251.543 59.9267 251.786 57.7577C251.954 56.318 251.45 54.149 250.702 53.0272C249.785 51.6248 247.916 50.8021 246.626 51.2135Z" fill="#4F3D38"/>
<path d="M301.485 51.494C300.606 51.8867 299.522 52.9338 299.148 53.7565C298.774 54.5605 298.681 56.1685 298.98 56.9164C299.111 57.3091 299.092 57.4026 298.793 57.4961C298.194 57.6831 296.979 59.2163 296.736 60.1138C295.857 63.2176 298.811 66.3028 301.878 65.4614C302.289 65.3492 303.093 64.9752 303.654 64.6013C304.215 64.246 304.907 63.9469 305.206 63.9469C305.505 63.9469 307.955 64.7883 310.647 65.798C322.932 70.4724 322.128 70.1359 322.614 70.9212C322.745 71.1456 322.932 71.6691 323.006 72.0805C323.175 73.0714 323.53 73.7072 324.353 74.5112C326.316 76.4184 329.719 75.8013 331.084 73.2958C331.495 72.5479 331.533 72.2861 331.458 70.9586L331.364 69.4627L332.094 68.9392C332.58 68.6026 333.01 68.0791 333.309 67.4434C334.057 65.8167 333.833 64.1712 332.655 62.8063C331.832 61.834 330.766 61.3479 329.495 61.3292C328.298 61.3292 327.438 61.6657 326.428 62.5445C325.138 63.6477 325.119 63.6477 318.986 61.2918C315.957 60.1138 312.255 58.7114 310.778 58.1505C307.786 57.0099 307.618 56.8604 307.356 55.2149C306.964 52.672 305.337 51.2136 302.906 51.2323C302.439 51.251 301.803 51.3632 301.485 51.494Z" fill="#4F3D38"/>
<path d="M47.287 53.5883C46.5204 53.7192 44.9498 54.1305 43.8279 54.5045C39.677 55.8507 36.9658 57.5522 36.1057 59.3285C35.3204 60.9553 35.7504 63.012 37.0593 64.003C37.3958 64.2648 38.6486 64.9566 39.8266 65.5362C42.706 66.976 44.8189 68.397 46.2213 69.9116C47.3431 71.0895 47.661 71.6131 48.9699 74.4178C50.5592 77.8208 53.9435 79.7093 56.3555 78.55C57.3465 78.0638 58.0383 77.2411 59.0667 75.334C60.9552 71.8187 62.2828 65.3867 61.7031 62.5259C61.0674 59.4033 58.6554 56.393 55.4206 54.7288C54.4857 54.2614 53.2143 53.7379 52.6159 53.5696C51.3071 53.233 49.2129 53.233 47.287 53.5883Z" fill="#4F3D38"/>
<path d="M228.676 58.6178C225.31 59.16 220.224 61.3477 218.298 63.0679C216.578 64.6011 215.924 66.527 216.597 68.1163C216.989 69.0699 218.242 70.0048 220.224 70.8649C224.057 72.5103 226.563 74.137 228.077 75.9694C228.507 76.5117 229.274 77.7457 229.76 78.718C231.686 82.6072 235.07 84.6453 237.576 83.4673C239.95 82.3267 242.157 76.7547 242.605 70.7714C242.867 67.1253 241.988 64.6946 239.539 62.2452C236.454 59.16 232.789 57.9446 228.676 58.6178Z" fill="#4F3D38"/>
<path d="M69.1823 60.1884C67.6491 60.4875 65.3866 62.0395 64.1899 63.6288C62.5258 65.7791 62.3575 68.752 63.7599 70.547C65.1996 72.3607 68.397 72.2111 70.4163 70.2105C71.5943 69.0325 72.2861 67.6115 72.5853 65.7791C73.1275 62.1891 71.613 59.7209 69.1823 60.1884Z" fill="#4F3D38"/>
<path d="M249.617 64.489C247.673 65.0873 245.448 67.088 244.419 69.1448C243.821 70.3788 243.727 70.7341 243.727 71.8746C243.746 76.1004 247.972 77.671 251.281 74.698C252.852 73.277 253.787 70.1918 253.394 67.7611C252.964 65.1621 251.524 63.9093 249.617 64.489Z" fill="#4F3D38"/>
<path d="M188.101 68.8083C186.867 69.0701 185.633 69.7806 185.165 70.4911C184.249 71.8374 184.848 73.5763 186.904 75.5956C188.681 77.3158 190.102 78.0077 192.084 78.1199C193.486 78.1947 193.71 78.1573 194.645 77.6524C196.534 76.6427 197.244 74.9599 196.609 72.8283C196.197 71.3699 194.664 69.8367 193.037 69.201C191.785 68.7335 189.429 68.5278 188.101 68.8083Z" fill="#4F3D38"/>
<path d="M176.546 71.6132C172.021 72.5668 170.432 76.269 173.348 79.0924C174.246 79.9525 176.284 80.9996 177.78 81.3361C179.182 81.654 181.463 81.5044 182.417 80.9996C184.025 80.1768 185.072 78.3258 184.848 76.7551C184.586 75.1097 182.174 72.5481 180.248 71.8937C179.163 71.5197 177.574 71.4075 176.546 71.6132Z" fill="#4F3D38"/>
<path d="M100.258 72.6416C97.9023 73.6699 96.9861 76.0446 97.9958 78.5688C98.2202 79.1484 98.3324 79.7655 98.2763 80.0646C98.1454 80.6817 87.525 93.6393 86.7396 94.1255C86.2161 94.4433 86.0665 94.462 84.9073 94.2376C83.2244 93.9198 81.9156 94.275 80.9433 95.3034C79.6531 96.631 79.2792 97.9772 79.7279 99.5292C80.2515 101.324 81.8782 102.652 83.561 102.652C84.2715 102.652 84.2902 102.67 84.4959 103.493C84.7577 104.521 85.8235 105.756 86.8518 106.223C87.8241 106.672 89.4321 106.672 90.4044 106.223C91.5637 105.699 92.4799 104.559 92.7604 103.306C92.9661 102.371 92.9474 102.072 92.6482 100.857C92.2181 99.1365 92.2555 99.0243 94.4619 96.3879C95.322 95.3408 97.7527 92.3865 99.8843 89.8249C102.446 86.7024 103.942 85.057 104.316 84.9074C104.671 84.7391 105.213 84.7017 105.83 84.7952C107.345 85.0009 108.541 84.6269 109.57 83.5985C111.234 81.9157 111.327 79.4476 109.813 77.7648C108.971 76.8299 108.261 76.4559 107.064 76.3063C106.148 76.1942 106.148 76.1942 105.886 75.2967C105.232 73.0529 102.39 71.7067 100.258 72.6416Z" fill="#4F3D38"/>
<path d="M281.497 76.1754C280.188 76.7363 279.197 77.9891 278.879 79.4288C278.805 79.7841 278.861 80.5881 278.992 81.2612C279.197 82.2709 279.179 82.5327 278.954 83.0001C278.749 83.4302 267.735 92.9474 265.753 94.4058C265.099 94.892 264.314 94.8733 262.893 94.331C260.312 93.3587 257.321 95.4716 257.283 98.3324C257.265 100.109 258.686 102.053 260.312 102.483C261.154 102.708 261.191 102.745 261.303 103.568C261.677 105.999 263.435 107.438 265.903 107.289C267.38 107.214 268.409 106.634 269.194 105.419C269.661 104.727 269.736 104.428 269.811 102.67C269.867 101.586 269.998 100.557 270.091 100.389C270.391 99.8843 283.124 89.1704 283.797 88.8525C284.339 88.5908 284.507 88.5908 285.293 88.8152C288.172 89.7127 290.622 88.4973 291.314 85.8235C291.874 83.6919 290.584 81.4669 288.322 80.7377C287.555 80.4946 287.48 80.4011 287.424 79.8215C287.237 77.5403 285.442 75.9136 283.143 75.9136C282.544 75.9323 281.815 76.0445 281.497 76.1754Z" fill="#4F3D38"/>
<path d="M8.1336 78.7932C5.31021 79.485 4.24443 81.2987 5.36631 83.449C6.17032 85.0383 8.76933 87.1324 10.6017 87.6934C12.6211 88.3104 13.8926 88.1608 15.4819 87.095C16.4916 86.4032 17.0712 85.3 17.0525 84.0473C17.0151 80.289 12.6024 77.69 8.1336 78.7932Z" fill="#4F3D38"/>
<path d="M190.906 79.3912C187.877 79.7465 186.269 80.5131 184.268 82.5325C182.155 84.664 180.622 88.2914 180.622 91.0587C180.641 93.6764 181.875 97.3038 183.931 100.763C186.175 104.521 187.764 105.83 190.046 105.83C192.177 105.83 193.093 104.82 194.271 101.193C195.094 98.7062 196.272 96.1633 197.226 94.7609C198.011 93.6203 199.638 92.1806 200.928 91.4327C204.2 89.6003 206.182 86.029 205.284 83.6357C204.424 81.3545 199.6 79.5782 193.71 79.3912C192.532 79.3538 191.261 79.3538 190.906 79.3912Z" fill="#4F3D38"/>
<path d="M169.31 80.4571C168.562 80.8123 167.627 81.8781 167.346 82.7382C167.197 83.1683 167.141 84.0284 167.197 84.9633C167.402 88.6468 169.814 91.171 173.722 91.788C175.443 92.0685 176.434 91.7319 177.499 90.4792C179.257 88.4224 178.677 85.3933 176.022 82.7195C174.508 81.1863 172.787 80.3449 171.105 80.2701C170.357 80.2327 169.646 80.3075 169.31 80.4571Z" fill="#4F3D38"/>
<path d="M354.887 82.065C352.063 82.9625 350.586 85.1688 351.315 87.3752C351.633 88.2914 352.848 89.6376 354.008 90.2921C355.204 90.9652 357.299 91.6196 358.271 91.6196H359V86.6647V81.7097L357.467 81.7284C356.532 81.7284 355.504 81.8593 354.887 82.065Z" fill="#4F3D38"/>
<path d="M0 86.7769V91.6758L1.00969 91.5636C3.40302 91.3205 5.12323 89.5442 5.12323 87.3192C5.12323 86.0477 4.78667 85.3933 3.40302 83.9722C2.46812 83.0186 0.747917 81.8968 0.186979 81.8968C0.0560937 81.8968 0 83.5422 0 86.7769Z" fill="#4F3D38"/>
<path d="M316.07 88.9646C315.097 89.432 314.293 90.4043 313.639 91.9562C312.293 95.2097 310.722 97.9396 309.282 99.5289C308.46 100.426 306.945 101.473 305.281 102.259C302.663 103.512 300.476 106.241 300.476 108.298C300.476 110.093 301.541 111.346 304.103 112.599C307.225 114.113 310.703 114.861 314.592 114.88C317.023 114.88 317.304 114.842 318.388 114.394C321.829 112.935 324.633 109.551 325.643 105.624C326.821 101.025 323.063 90.9839 319.473 89.1515C318.407 88.6093 317.004 88.5345 316.07 88.9646Z" fill="#4F3D38"/>
<path d="M136.682 89.3575C135.579 89.9371 134.924 91.0216 134.064 93.6206C132.718 97.7528 131.203 100.558 129.483 102.053C129.109 102.39 128.099 103.119 127.258 103.661C124.472 105.456 122.939 107.681 122.939 109.944C122.939 112.132 124.042 113.216 127.37 114.319C131.858 115.815 138.514 115.983 141.113 114.656C142.422 113.983 144.124 112.562 144.984 111.421C146.648 109.215 147.714 106.223 147.714 103.774C147.714 99.1552 143.376 90.9655 140.141 89.451C138.982 88.9087 137.598 88.8713 136.682 89.3575Z" fill="#4F3D38"/>
<path d="M9.98468 89.4697C6.99301 90.0119 4.24442 92.2556 2.72988 95.3969C0.71051 99.5665 0.729207 102.465 2.86077 107.27C3.90785 109.645 5.55327 112.281 6.88082 113.721C8.17098 115.105 9.38634 115.74 10.8074 115.74C12.7894 115.74 14.0234 114.562 14.79 111.907C16.4916 105.943 18.7166 102.502 21.8765 100.875C22.8862 100.352 24.7186 98.3699 25.2983 97.1545C26.9811 93.6954 25.6535 91.5264 21.0351 90.1428C17.9126 89.2266 12.9763 88.9274 9.98468 89.4697Z" fill="#4F3D38"/>
<path d="M348.567 90.8906C347.632 91.3581 346.865 92.5173 346.622 93.8636C346.416 94.9855 346.809 96.9674 347.463 98.295C348.66 100.632 351.82 102.278 354.643 102.053C355.915 101.941 356.831 101.249 357.56 99.8282C358.028 98.9494 358.084 98.669 358.009 97.6406C357.878 96.0325 357.149 94.6302 355.634 93.097C353.335 90.8158 350.492 89.9183 348.567 90.8906Z" fill="#4F3D38"/>
<path d="M149.396 91.0777C147.171 91.9939 146.293 94.6864 147.433 96.9862C148.686 99.4918 152.089 101.287 155.305 101.118C156.651 101.062 156.763 101.025 157.343 100.371C158.166 99.4918 158.334 98.4447 157.923 96.8554C157.324 94.5181 155.66 92.3492 153.772 91.4143C152.743 90.9094 150.238 90.7224 149.396 91.0777Z" fill="#4F3D38"/>
<path d="M327.999 92.1994C326.989 92.7042 326.372 93.5082 326.073 94.6675C325.419 97.3226 327.064 100.034 330.243 101.53C333.496 103.025 335.572 102.895 336.394 101.1C337.572 98.4819 335.59 93.8822 332.617 92.3489C331.383 91.7132 329.083 91.6384 327.999 92.1994Z" fill="#4F3D38"/>
<path d="M172.096 93.6763C171.179 93.9568 170.394 94.9852 170.263 96.051C169.927 98.5752 172.002 102.128 174.545 103.399C175.33 103.792 175.742 103.867 177.069 103.867C178.995 103.867 179.874 103.493 180.715 102.296C181.22 101.567 181.276 101.361 181.276 100.071C181.276 98.9118 181.183 98.463 180.809 97.7151C180.323 96.7802 178.902 95.3591 177.929 94.8543C176.097 93.9007 173.236 93.3398 172.096 93.6763Z" fill="#4F3D38"/>
<path d="M215.512 99.6597C214.222 100.314 213.418 101.324 213.081 102.689C212.969 103.138 212.876 103.212 212.259 103.212C210.146 103.231 208.295 105.232 208.295 107.513C208.295 108.822 208.781 109.869 209.772 110.71C210.782 111.589 211.773 111.869 213.325 111.72C214.334 111.626 214.652 111.682 215.063 111.944C215.699 112.356 226.151 124.939 226.581 125.799C226.843 126.342 226.843 126.51 226.619 127.295C226.02 129.408 226.226 130.81 227.329 132.044C228.227 133.035 229.236 133.503 230.545 133.503C231.144 133.503 231.892 133.353 232.322 133.148C233.331 132.699 234.36 131.521 234.64 130.455C234.883 129.614 234.921 129.576 235.594 129.576C236.66 129.576 238.211 128.698 238.866 127.707C239.333 127.015 239.427 126.641 239.483 125.538C239.576 123.948 239.202 123.051 238.024 122.06C236.847 121.05 235.612 120.77 234.004 121.181C233.294 121.368 233.088 121.331 232.509 121.05C232.06 120.807 230.115 118.582 226.338 114.001C220.299 106.69 220.486 106.989 221.215 105.363C221.776 104.091 221.664 102.446 220.897 101.23C219.831 99.4914 217.326 98.7622 215.512 99.6597Z" fill="#4F3D38"/>
<path d="M152.5 103.1C150.93 103.68 149.901 105.307 149.901 107.176C149.901 109.532 152.126 112.524 154.912 113.889C157.53 115.179 159.718 114.674 160.802 112.561C161.868 110.467 161.026 106.746 159.082 104.989C157.362 103.418 154.146 102.502 152.5 103.1Z" fill="#4F3D38"/>
<path d="M351.39 104.129C349.707 104.914 349.445 107.177 350.773 109.888C352.25 112.88 355.242 114.618 357.99 114.058L359 113.852V109.85V105.868L358.121 105.307C357.037 104.615 354.232 103.774 353.035 103.774C352.568 103.774 351.82 103.942 351.39 104.129Z" fill="#4F3D38"/>
<path d="M330.299 104.222C328.822 104.764 327.588 106.634 327.588 108.317C327.588 109.233 328.167 110.991 328.803 112.001C329.588 113.253 331.29 114.824 332.542 115.46C334.113 116.245 335.759 116.264 336.918 115.497C338.077 114.73 338.619 113.478 338.619 111.514C338.619 109.701 338.264 108.411 337.441 107.195C335.983 105.082 332.243 103.53 330.299 104.222Z" fill="#4F3D38"/>
<path d="M0 109.813C0 111.944 0.0747917 113.683 0.149583 113.683C0.411354 113.683 1.51453 112.524 1.8137 111.926C1.96328 111.626 2.11286 110.86 2.11286 110.224C2.13156 108.896 1.51453 107.401 0.560937 106.484L0 105.942V109.813Z" fill="#4F3D38"/>
<path d="M37.8259 110.58C36.6666 111.122 35.8439 112.169 35.5073 113.497C35.2643 114.431 35.2082 114.488 34.0863 114.712C33.1327 114.899 32.0669 115.796 31.5247 116.881C30.702 118.545 30.945 120.284 32.1978 121.649C32.6092 122.098 33.301 122.584 33.7497 122.771C34.5911 123.089 34.6846 123.07 37.8446 122.715L38.7421 122.621L45.0807 128.941C49.3812 133.223 51.438 135.429 51.5128 135.766C51.5875 136.046 51.4941 136.663 51.3445 137.149C50.4844 139.636 51.8119 142.198 54.2987 142.871C56.5612 143.488 58.9171 142.03 59.5155 139.674C59.7772 138.683 59.7959 138.645 60.5439 138.514C61.9836 138.271 63.1242 137.355 63.7038 135.99C64.3395 134.438 63.816 132.213 62.5258 131.091C61.5348 130.212 60.2073 129.895 58.6928 130.156C58.0009 130.269 57.253 130.325 57.0099 130.269C56.7669 130.194 53.6817 127.258 50.1478 123.724L43.7157 117.292L43.8466 115.348C43.9775 113.44 43.9588 113.384 43.4353 112.375C42.706 111.01 41.6029 110.299 39.9761 110.187C39.0039 110.131 38.6299 110.187 37.8259 110.58Z" fill="#4F3D38"/>
<path d="M146.554 113.59C144.292 114.412 143.02 116.974 143.862 118.993C144.236 119.891 146.236 121.948 147.283 122.509C148.63 123.238 150.107 123.481 151.565 123.219C154.65 122.696 156.576 120.994 156.576 118.825C156.576 116.694 154.744 114.842 151.565 113.777C149.976 113.234 147.732 113.16 146.554 113.59Z" fill="#4F3D38"/>
<path d="M323.212 114.151C321.585 114.73 320.464 116.095 320.333 117.647C320.239 118.863 320.501 119.536 321.642 121.088C323.193 123.163 325.68 124.341 328.018 124.061C332.973 123.5 334.805 119.554 331.514 116.469C329.27 114.356 325.549 113.309 323.212 114.151Z" fill="#4F3D38"/>
<path d="M311.414 116.096C310.385 116.357 309.301 117.03 308.759 117.722C308.366 118.264 308.235 118.657 308.179 119.573C308.086 120.994 308.347 121.892 309.207 123.07C310.46 124.79 312.629 125.744 315.34 125.744C317.36 125.744 318.519 125.351 319.36 124.416C319.809 123.893 319.921 123.612 319.921 122.883C319.921 121.256 318.407 118.956 316.35 117.386C314.966 116.357 312.723 115.759 311.414 116.096Z" fill="#4F3D38"/>
<path d="M134.569 116.937C132.699 117.629 131.783 118.769 131.671 120.489C131.615 121.499 131.671 121.78 132.232 122.845C133.354 125.014 135.579 126.211 138.533 126.211C142.123 126.211 144.254 124.547 143.619 122.247C143.133 120.527 140.571 117.965 138.57 117.217C137.224 116.712 135.485 116.6 134.569 116.937Z" fill="#4F3D38"/>
<path d="M257.414 123.294C254.179 124.64 252.684 127.033 252.833 130.661C252.889 132.082 252.964 132.418 253.394 133.073C254.441 134.662 257.115 135.223 258.966 134.27C261.864 132.736 264.276 128.398 263.659 125.762C263.211 123.836 261.883 122.845 259.714 122.845C258.854 122.845 258.181 122.995 257.414 123.294Z" fill="#4F3D38"/>
<path d="M82.0278 124.528C81.149 124.809 80.2702 125.594 79.8214 126.529C79.4288 127.333 79.3727 127.67 79.3914 129.67C79.4101 134.719 81.579 140.926 84.1406 143.301C85.4869 144.535 87.4128 145.526 89.3013 145.956C91.3019 146.386 94.8171 146.255 96.3504 145.657C99.6973 144.386 104.634 139.524 106.503 135.654C107.046 134.55 107.139 134.158 107.139 133.017C107.139 131.185 106.634 130.231 105.269 129.521L104.26 128.997L100.501 129.128C95.135 129.296 92.6482 128.81 90.3109 127.127C87.3006 124.958 86.2535 124.51 84.0471 124.416C83.2244 124.379 82.3082 124.435 82.0278 124.528Z" fill="#4F3D38"/>
<path d="M267.829 126.005C266.277 126.379 265.155 127.595 264.37 129.764C263.996 130.773 263.921 131.334 263.921 133.129C263.921 134.98 263.977 135.411 264.351 136.215C265.118 137.86 266.352 138.814 268.035 139.057C269.83 139.3 271.569 137.972 272.859 135.373C273.401 134.27 273.457 134.008 273.457 132.381C273.457 130.773 273.401 130.474 272.877 129.39C272.148 127.857 271.325 126.903 270.316 126.436C269.325 125.949 268.558 125.837 267.829 126.005Z" fill="#4F3D38"/>
<path d="M246.513 128.417C244.587 129.091 242.83 130.736 241.876 132.737C240.212 136.327 242.306 140.197 245.728 139.804C248.346 139.487 250.234 137.299 250.851 133.859C251.655 129.39 249.935 127.239 246.513 128.417Z" fill="#4F3D38"/>
<path d="M182.136 134.531C179.687 135.298 178.995 137.916 180.454 140.982C182.08 144.404 185.577 146.648 188.026 145.844C189.186 145.451 190.233 144.647 190.607 143.806C191.074 142.796 190.943 140.216 190.363 138.701C189.148 135.579 185.222 133.578 182.136 134.531Z" fill="#4F3D38"/>
<path d="M75.2591 136.532C74.1559 136.831 72.5105 138.551 72.0805 139.86C71.183 142.571 72.174 146.143 74.3429 148.069C75.3152 148.91 76.1566 149.153 77.0728 148.854C79.0174 148.218 80.9433 144.273 80.7376 141.356C80.4945 138.009 77.989 135.803 75.2591 136.532Z" fill="#4F3D38"/>
<path d="M254.105 137.486C249.842 138.739 243.914 143.245 242.362 146.386C241.409 148.368 241.82 150.556 243.335 151.603C244.139 152.164 244.756 152.313 247.355 152.65C250.403 153.061 252.459 153.604 254.404 154.538C255.881 155.249 256.348 155.604 258.143 157.399C260.649 159.886 261.939 160.634 264.071 160.746C267.137 160.933 268.371 159.288 268.876 154.314C269.194 151.304 268.652 146.704 267.661 143.974C266.67 141.226 263.977 138.944 260.368 137.804C258.723 137.28 255.357 137.112 254.105 137.486Z" fill="#4F3D38"/>
<path d="M273.588 138.196C272.055 138.963 270.148 141.73 269.624 143.955C268.857 147.209 270.802 150.331 273.588 150.331C275.289 150.331 277.234 148.891 278.113 146.984C278.636 145.825 278.674 142.702 278.169 141.169C277.533 139.243 276.112 137.803 274.822 137.803C274.598 137.803 274.037 137.99 273.588 138.196Z" fill="#4F3D38"/>
<path d="M173.61 138.533C172.6 138.982 171.385 140.403 170.862 141.711C170.544 142.534 170.45 143.151 170.432 144.535C170.432 146.087 170.488 146.442 170.936 147.34C171.609 148.704 173.143 150.387 174.134 150.873C174.582 151.098 175.312 151.266 175.779 151.266C176.733 151.266 178.266 150.593 178.883 149.939C180.08 148.63 180.566 145.862 179.986 143.6C178.902 139.393 176.284 137.317 173.61 138.533Z" fill="#4F3D38"/>
<path d="M194.122 138.851C193.206 139.318 192.776 140.309 192.776 141.936C192.776 144.386 193.561 146.554 195.038 148.181C196.197 149.453 197.282 149.958 198.759 149.958C200.161 149.958 200.928 149.64 201.694 148.78C202.461 147.901 202.76 146.947 202.76 145.451C202.76 144.442 202.648 143.974 202.162 142.983C201.433 141.506 199.881 140.01 198.291 139.225C196.87 138.533 195.057 138.384 194.122 138.851Z" fill="#4F3D38"/>
<path d="M104.783 141.468C103.586 141.898 102.558 142.908 101.866 144.31C101.268 145.526 101.249 145.601 101.249 148.087C101.249 150.462 101.287 150.668 101.773 151.677C102.689 153.528 103.942 153.94 105.886 152.968C108.971 151.472 110.953 147.564 110.149 144.591C109.85 143.488 108.822 142.104 107.999 141.674C107.083 141.188 105.755 141.113 104.783 141.468Z" fill="#4F3D38"/>
<path d="M353.559 141.917C351.427 142.291 350.156 143.693 350.175 145.657C350.193 146.947 350.399 147.508 351.371 148.929C352.998 151.322 355.298 152.799 357.654 152.912L359 152.986V148.013V143.039L358.289 142.684C356.943 141.992 354.961 141.674 353.559 141.917Z" fill="#4F3D38"/>
<path d="M317.397 143.226C316.313 143.787 315.714 144.441 315.079 145.787C314.63 146.722 314.368 147.04 313.882 147.227C313.564 147.377 309.488 148.162 304.851 149.004C295.539 150.686 295.689 150.668 294.791 149.49C294.118 148.63 292.604 147.9 291.426 147.9C287.574 147.9 285.667 152.5 288.378 155.193L288.845 155.679L288.471 156.782C287.892 158.521 288.284 160.185 289.575 161.4C291.052 162.803 293.613 162.877 295.296 161.55C295.82 161.138 296.736 159.549 296.736 159.026C296.736 158.876 296.96 158.502 297.259 158.184C297.82 157.548 296.998 157.735 308.964 155.567C315.864 154.332 315.808 154.332 316.705 155.641C317.584 156.913 319.473 157.773 320.894 157.511C324.409 156.838 325.792 152.668 323.306 150.182L322.745 149.621L323.137 148.817C323.437 148.162 323.493 147.788 323.418 146.816C323.306 145.414 322.707 144.404 321.473 143.544C320.426 142.796 318.519 142.646 317.397 143.226Z" fill="#4F3D38"/>
<path d="M0 148.106V152.968L0.972292 152.444C2.09417 151.846 2.91688 150.799 3.08516 149.808C3.25344 148.761 2.7112 146.629 1.94458 145.339C1.27146 144.236 0.430052 143.226 0.149583 143.226C0.0747917 143.226 0 145.414 0 148.106Z" fill="#4F3D38"/>
<path d="M146.068 143.619C144.572 143.899 143.301 145.002 142.833 146.423C142.478 147.47 141.955 148.069 141.207 148.274C139.748 148.686 124.64 151.827 124.135 151.827C123.78 151.827 123.313 151.565 122.658 150.986C121.499 149.957 120.845 149.602 119.76 149.452C115.834 148.929 113.422 153.828 116.208 156.688C116.843 157.343 116.843 157.343 116.582 158.091C115.497 161.12 117.479 164.037 120.62 164.018C122.714 164.018 124.117 162.803 124.827 160.409C124.996 159.848 125.276 159.381 125.557 159.194C125.818 159.026 127.352 158.614 128.96 158.278C130.586 157.922 134.326 157.137 137.261 156.52C140.216 155.884 142.852 155.38 143.133 155.38C143.507 155.38 143.899 155.641 144.61 156.389C145.788 157.605 146.517 157.997 147.826 158.128C149.097 158.259 150.219 157.866 151.135 156.95C152.07 156.015 152.425 155.155 152.425 153.884C152.425 152.631 152.07 151.752 151.154 150.817C150.518 150.163 150.518 150.163 150.817 149.471C151.472 147.919 151.023 145.769 149.808 144.703C148.686 143.712 147.452 143.357 146.068 143.619Z" fill="#4F3D38"/>
<path d="M5.98334 144.498C3.19735 145.881 5.32891 152.612 9.14328 154.482C10.9196 155.361 13.6121 154.912 14.547 153.566C16.2485 151.117 15.164 147.396 12.191 145.489C10.2091 144.217 7.42307 143.768 5.98334 144.498Z" fill="#4F3D38"/>
<path d="M82.3269 146.611C80.5319 147.134 78.7182 150.761 78.9613 153.379C79.1483 155.511 80.9059 158.128 82.7383 159.026C83.2431 159.269 83.8788 159.4 84.6455 159.4C85.6178 159.4 85.9169 159.325 86.6087 158.839C88.3103 157.624 89.1517 154.557 88.5907 151.659C88.4224 150.818 88.1046 149.77 87.8802 149.303C86.8144 147.097 84.5146 145.975 82.3269 146.611Z" fill="#4F3D38"/>
<path d="M344.827 147.47C343.929 147.9 342.808 149.284 342.415 150.387C342.191 151.06 342.078 151.902 342.078 153.136C342.078 154.706 342.134 155.043 342.602 155.978C343.2 157.193 345.07 159.044 346.323 159.661C348.323 160.615 350.81 159.605 351.764 157.455C353.073 154.463 350.904 148.873 347.912 147.508C346.959 147.078 345.65 147.059 344.827 147.47Z" fill="#4F3D38"/>
<path d="M187.503 148.106C185.091 148.461 182.286 149.976 180.229 152.014C178.472 153.753 177.2 157.006 176.695 161.064C176.434 163.158 176.546 167.496 176.901 168.524C177.219 169.459 178.247 170.637 179.145 171.086C180.641 171.853 182.211 171.441 184.343 169.702C186.923 167.627 189.391 166.15 191.56 165.383C192.252 165.14 193.374 165.009 195.767 164.916C198.478 164.803 199.226 164.71 200.086 164.373C203.938 162.896 204.817 160.166 202.536 156.819C199.769 152.762 194.234 148.648 190.794 148.087C189.541 147.882 189.017 147.882 187.503 148.106Z" fill="#4F3D38"/>
<path d="M93.957 148.854C92.7417 149.452 91.6572 150.668 90.8719 152.294C89.6191 154.912 89.4134 157.193 90.2922 158.988C91.545 161.569 95.2659 161.512 98.0145 158.857C99.4168 157.53 99.903 156.371 99.9964 154.239C100.127 151.303 99.3981 149.583 97.6966 148.817C96.6682 148.349 94.9293 148.368 93.957 148.854Z" fill="#4F3D38"/>
<path d="M169.141 150.705C166.711 151.453 165.514 156.352 166.972 159.624C167.776 161.438 169.777 162.896 171.479 162.896C173.274 162.896 174.433 162.111 175.218 160.354C175.704 159.25 175.723 157.437 175.274 156.09C174.695 154.352 172.638 151.678 171.348 151.023C170.581 150.631 169.777 150.518 169.141 150.705Z" fill="#4F3D38"/>
<path d="M2.52422 154.463C2.01938 154.538 1.23406 154.706 0.804011 154.837L0 155.062V166.449V177.854L2.39333 175.424C4.76797 173.012 6.35729 171.759 8.00271 171.048C9.16198 170.525 10.6017 170.151 11.4057 170.151C13.1072 170.151 15.7063 169.104 17.0899 167.889C18.7353 166.43 19.1841 164.579 18.324 162.84C17.763 161.737 15.3323 159.381 13.4064 158.109C10.3399 156.071 5.79635 154.22 4.03875 154.276C3.72089 154.295 3.04776 154.37 2.52422 154.463Z" fill="#4F3D38"/>
<path d="M357.504 155.885C355.784 156.838 353.166 159.512 352.456 161.045C351.39 163.308 351.24 164.261 351.24 168.468C351.24 174.77 352.175 177.574 354.625 178.752C355.709 179.294 356.943 179.201 358.14 178.49L359 177.986V166.599C359 160.316 358.944 155.193 358.869 155.193C358.776 155.193 358.177 155.511 357.504 155.885Z" fill="#4F3D38"/>
<path d="M342.078 160.503C341.293 160.84 340.545 161.775 340.265 162.728C339.872 164.018 339.984 166.879 340.47 168.151C341.405 170.563 343.518 172.208 345.668 172.208C346.996 172.208 347.744 171.871 348.585 170.899C349.483 169.833 349.707 169.067 349.614 167.459C349.483 165.645 348.679 164.074 347.108 162.56C345.126 160.671 343.312 159.923 342.078 160.503Z" fill="#4F3D38"/>
<path d="M221.832 161.718C218.859 162.485 216.073 165.757 216.054 168.506C216.054 170.17 216.971 171.086 218.971 171.367C220.131 171.535 223.029 171.011 224.3 170.413C225.497 169.852 226.768 168.655 227.273 167.627C227.965 166.15 227.834 164.261 226.955 163.139C226.077 161.999 223.496 161.288 221.832 161.718Z" fill="#4F3D38"/>
<path d="M236.061 162.13C232.527 163.569 227.273 168.749 225.553 172.526C225.142 173.405 225.048 173.965 224.973 175.536C224.842 178.546 225.422 180.472 227.311 183.37C228.395 185.035 229.61 186.119 231.349 186.998C235.126 188.924 241.801 189.99 244.625 189.148C246.027 188.737 247.205 187.634 247.542 186.381C247.897 185.147 247.486 183.95 245.859 181.463C242.68 176.564 241.895 174.022 242.325 170.207C242.512 168.637 242.512 167.814 242.362 166.879C242.119 165.439 241.39 163.738 240.68 162.971C239.539 161.756 237.781 161.438 236.061 162.13Z" fill="#4F3D38"/>
<path d="M46.8009 164.243C45.5855 164.635 44.5011 165.346 43.4353 166.449C41.6216 168.319 41.0419 170.226 41.8646 171.572C42.9491 173.348 47.7358 173.797 50.6153 172.395C54.2988 170.581 54.6914 166.243 51.3258 164.486C50.3722 163.999 47.9602 163.869 46.8009 164.243Z" fill="#4F3D38"/>
<path d="M61.9462 166.692C57.7205 167.833 51.1388 172.937 49.7739 176.153C48.9138 178.191 48.7081 180.959 49.2503 183.315C49.643 184.941 50.8209 187.484 51.6997 188.55C53.0647 190.233 55.3645 191.691 58.7676 193.056C61.4975 194.141 63.6664 194.646 65.5362 194.646C67.3312 194.646 68.2287 194.29 69.2197 193.187C70.5099 191.766 70.4351 190.607 68.8083 186.905C67.2751 183.408 66.7516 181.426 66.7516 179.014C66.7516 177.5 66.8451 176.826 67.2564 175.555C68.2287 172.451 67.8174 169.216 66.228 167.552C65.1809 166.449 63.8534 166.187 61.9462 166.692Z" fill="#4F3D38"/>
<path d="M215.83 173.423C214.764 173.741 213.568 174.47 212.838 175.237C212.034 176.078 211.174 177.761 210.912 179.014C210.501 180.977 211.286 182.941 212.764 183.688C215.419 185.053 220.505 182.735 222.131 179.425C223.328 177.013 222.58 174.283 220.505 173.405C219.738 173.068 216.896 173.087 215.83 173.423Z" fill="#4F3D38"/>
<path d="M155.286 173.591C150.5 174.956 149.172 178.172 152.463 180.435C155.978 182.828 159.194 183.109 161.718 181.22C162.448 180.678 163.233 179.126 163.233 178.191C163.233 176.564 161.513 174.433 159.718 173.797C158.484 173.367 156.427 173.274 155.286 173.591Z" fill="#4F3D38"/>
<path d="M335.777 173.966C333.552 174.564 332.729 176.041 333.515 178.042C333.926 179.107 335.216 180.94 336.189 181.819C338.152 183.595 340.882 184.137 342.864 183.146C345.481 181.837 345.687 178.36 343.294 175.966C341.48 174.153 338.283 173.292 335.777 173.966Z" fill="#4F3D38"/>
<path d="M39.3778 174.751C37.6202 175.293 36.1618 176.564 35.2456 178.359C33.5067 181.8 34.7968 184.605 38.2372 184.866C41.3224 185.109 45.2677 183.034 46.4643 180.528C47.2496 178.902 46.7261 176.303 45.4359 175.387C44.2019 174.508 41.2102 174.19 39.3778 174.751Z" fill="#4F3D38"/>
<path d="M324.371 175.031C319.734 175.704 318.407 179.687 321.791 182.735C323.661 184.417 326.41 185.446 328.541 185.24C330.916 185.034 332.636 183.295 332.636 181.108C332.636 179.462 330.598 176.639 328.709 175.667C327.999 175.311 325.923 174.769 325.549 174.844C325.493 174.863 324.951 174.938 324.371 175.031Z" fill="#4F3D38"/>
<path d="M281.086 179.519C278.936 180.585 278.113 183.221 279.235 185.446C279.496 185.97 279.721 186.699 279.721 187.054C279.721 187.521 278.917 189.111 276.393 193.542C274.56 196.777 272.653 200.143 272.148 201.04C270.933 203.246 270.652 203.471 269.082 203.639C267.474 203.807 266.408 204.35 265.697 205.341C264.669 206.762 264.519 208.407 265.323 209.959C266.053 211.399 267.53 212.221 269.4 212.221C270.204 212.221 270.372 212.278 270.465 212.614C270.671 213.269 271.905 214.503 272.709 214.858C273.625 215.288 275.196 215.307 276.131 214.933C277.159 214.484 278.169 213.418 278.524 212.352C278.936 211.1 278.767 209.922 277.963 208.388C277.552 207.622 277.346 207.005 277.402 206.706C277.44 206.444 277.982 205.378 278.58 204.331C279.179 203.265 281.086 199.918 282.787 196.889C284.507 193.86 286.078 191.224 286.284 191.037C286.564 190.831 286.994 190.719 287.705 190.719C289.201 190.719 290.266 190.382 291.145 189.634C292.136 188.774 292.622 187.746 292.622 186.418C292.622 185.109 292.155 184.1 291.164 183.202C290.323 182.436 289.425 182.118 288.097 182.118C287.275 182.118 287.219 182.08 286.77 181.314C286.172 180.323 285.611 179.781 284.732 179.407C283.722 178.995 282.039 179.051 281.086 179.519Z" fill="#4F3D38"/>
<path d="M143.843 179.837C141.599 180.641 139.692 182.51 139.374 184.231C139.112 185.764 140.16 187.578 141.749 188.344C144.647 189.709 148.929 189.466 150.855 187.802C151.771 187.017 152.126 186.418 152.407 185.128C152.837 183.146 151.752 181.576 149.041 180.285C147.302 179.444 145.395 179.294 143.843 179.837Z" fill="#4F3D38"/>
<path d="M111.383 182.136C108.616 182.772 107.307 185.577 108.467 188.307C108.728 188.924 108.822 189.41 108.747 189.803C108.579 190.644 98.8559 204.798 98.2576 205.079C97.9958 205.21 97.3227 205.303 96.7804 205.303C94.7797 205.303 93.2278 206.238 92.4986 207.902C92.0872 208.837 92.0312 210.314 92.3677 211.193C92.966 212.745 94.6302 213.904 96.3317 213.904C97.1544 213.904 97.2105 213.942 97.3975 214.521C97.8836 215.961 99.3981 217.158 101.044 217.382C102.876 217.644 104.933 216.297 105.55 214.465C105.942 213.268 105.83 212.221 105.176 210.912C104.334 209.23 103.736 210.314 112.169 198.011C113.384 196.197 114.581 194.57 114.805 194.365C115.16 194.047 115.441 193.991 116.694 194.047C119.461 194.14 121.312 192.757 121.649 190.289C121.985 187.858 119.891 185.483 117.423 185.483C116.6 185.483 116.544 185.446 116.32 184.81C115.628 182.884 113.384 181.669 111.383 182.136Z" fill="#4F3D38"/>
<path d="M164.186 182.417C161.887 182.753 159.4 183.464 157.53 184.343C154.987 185.539 153.005 188.082 152.22 191.149C150.855 196.44 152.108 200.199 156.857 205.154C158.839 207.248 160.447 208.519 161.887 209.192C162.728 209.566 163.102 209.641 164.243 209.566C165.383 209.51 165.72 209.417 166.299 208.987C167.477 208.089 167.758 207.266 167.945 204.181C168.319 197.712 169.067 195.449 171.778 192.514C173.853 190.251 174.807 187.577 174.377 185.222C174.227 184.399 173.33 183.352 172.376 182.847C170.936 182.118 167.477 181.931 164.186 182.417Z" fill="#4F3D38"/>
<path d="M316.668 182.753C314.892 183.408 314.013 185.016 314.05 187.54C314.088 189.728 314.592 191.036 315.976 192.42C317.678 194.103 320.426 195.131 321.978 194.664C323.549 194.196 324.97 192.271 324.97 190.606C324.97 189.522 324.353 187.596 323.661 186.568C322.894 185.408 320.912 183.576 319.903 183.09C318.781 182.566 317.565 182.435 316.668 182.753Z" fill="#4F3D38"/>
<path d="M219.981 184.193C216.522 184.604 214.072 186.512 214.054 188.793C214.054 190.625 215.157 192.084 217.401 193.187C218.579 193.748 218.822 193.804 220.448 193.804C222.524 193.804 223.571 193.411 225.329 191.971C227.011 190.588 227.516 189.129 226.918 187.39C226.039 184.922 223.515 183.763 219.981 184.193Z" fill="#4F3D38"/>
<path d="M335.123 184.829C332.019 185.708 329.439 187.895 327.793 191.093C326.765 193.075 326.466 194.234 326.466 196.272C326.466 199.264 327.55 203.228 329.289 206.612C330.747 209.454 332.243 210.707 334.188 210.726C336.132 210.726 336.955 209.959 338.788 206.35C341.33 201.358 342.826 199.75 346.547 197.936C348.585 196.927 349.184 196.553 350.044 195.636C353.26 192.271 352.605 189.41 348.118 187.204C344.116 185.24 337.778 184.081 335.123 184.829Z" fill="#4F3D38"/>
<path d="M39.7518 186.157C36.9845 187.017 35.7691 188.924 36.4983 191.336C36.8349 192.476 38.499 194.141 39.9949 194.888C41.1167 195.431 41.3972 195.487 42.9117 195.487C44.4637 195.487 44.7067 195.431 46.0156 194.814C48.5585 193.598 49.5308 192.289 49.3064 190.364C49.0446 188.213 47.6423 186.774 45.1555 186.119C43.9214 185.783 40.9111 185.801 39.7518 186.157Z" fill="#4F3D38"/>
<path d="M232.228 189.784C230.134 190.214 227.049 192.327 226.357 193.785C225.946 194.645 225.983 195.73 226.432 196.478C226.899 197.244 228.264 198.123 229.61 198.516C230.994 198.927 233.369 198.908 234.621 198.497C238.174 197.319 239.576 193.336 237.239 191.093C236.043 189.933 234.061 189.41 232.228 189.784Z" fill="#4F3D38"/>
<path d="M140.178 189.99C138.907 190.195 137.935 190.887 137.43 191.934C136.252 194.384 138.122 198.46 141.076 199.881C141.824 200.236 142.403 200.348 143.88 200.404C144.965 200.442 146.087 200.386 146.554 200.274C149.546 199.47 150.182 195.3 147.695 192.794C145.75 190.831 142.459 189.597 140.178 189.99Z" fill="#4F3D38"/>
<path d="M51.9802 193.692C49.8112 194.383 47.9602 195.618 47.3805 196.721C47.2496 197.001 47.1187 197.543 47.1187 197.917C47.1187 200.161 50.4657 202.33 53.9248 202.311C57.9261 202.274 60.6747 199.077 59.2911 196.029C58.861 195.075 57.6083 194.01 56.5051 193.636C55.3832 193.243 53.2704 193.28 51.9802 193.692Z" fill="#4F3D38"/>
<path d="M316.948 196.478C315.789 197.057 315.527 197.618 315.527 199.563C315.527 201.433 315.808 202.424 316.799 204.032C319.697 208.818 326.559 207.734 326.036 202.573C325.774 200.012 323.474 197.656 320.127 196.515C318.743 196.048 317.79 196.048 316.948 196.478Z" fill="#4F3D38"/>
<path d="M194.327 198.086C193.393 198.385 192.663 198.927 192.065 199.787C191.635 200.367 191.579 200.385 190.943 200.217C187.951 199.394 184.922 202.293 185.652 205.247C186.119 207.098 187.503 208.369 189.335 208.594C190.401 208.743 191.205 209.099 191.448 209.566C191.878 210.37 197.637 225.833 197.637 226.17C197.637 226.394 197.431 226.843 197.17 227.198C195.786 229.105 195.73 229.218 195.636 230.339C195.337 233.518 198.104 235.706 201.264 234.827C201.713 234.696 202.33 234.266 202.947 233.668L203.901 232.695L205.322 232.752C207.023 232.845 207.883 232.49 208.912 231.274C210.258 229.722 210.258 227.441 208.912 225.889C208.22 225.067 207.079 224.375 206.425 224.375C205.714 224.375 204.78 223.851 204.48 223.29C204.331 222.991 202.854 219.177 201.19 214.82C197.917 206.238 197.936 206.257 198.834 205.06C200.834 202.442 199.862 199.002 196.852 198.104C195.711 197.768 195.375 197.768 194.327 198.086Z" fill="#4F3D38"/>
<path d="M146.274 202.124C144.423 202.517 143.6 203.284 143.45 204.78C143.32 206.088 144.142 207.678 145.732 209.192C147.452 210.838 148.667 211.38 150.705 211.38C152.126 211.38 152.407 211.324 153.304 210.819C154.688 210.052 155.249 209.155 155.342 207.566C155.398 206.5 155.342 206.201 154.875 205.303C154.22 204.05 152.912 203.022 151.36 202.498C150.051 202.087 147.414 201.881 146.274 202.124Z" fill="#4F3D38"/>
<path d="M27.3364 210.651C26.0836 211.268 25.2796 212.39 25.0552 213.867C24.7373 215.755 25.9527 215.082 11.7797 221.197C9.8725 222.019 8.0775 222.73 7.75964 222.786C7.38568 222.861 6.99302 222.767 6.54427 222.505C6.18901 222.3 5.51589 221.944 5.06714 221.739C3.6087 221.047 1.68281 221.346 0.504844 222.449L0 222.954V225.721V228.489L0.841406 229.087L1.68281 229.685L1.57063 230.676C1.32755 232.696 2.31854 234.435 4.15094 235.22C6.84344 236.379 9.72292 234.64 10.0969 231.63C10.3026 229.966 10.5082 229.667 11.8358 229.05C15.9493 227.161 26.9998 222.505 27.3738 222.505C27.6168 222.505 28.1404 222.767 28.533 223.085C29.6175 223.964 30.6272 224.375 31.7491 224.375C34.2172 224.375 35.9748 222.599 35.9935 220.075C35.9935 219.065 35.9 218.71 35.4699 217.962C35.0773 217.289 33.8806 216.223 33.3384 216.055C33.3197 216.055 33.3945 215.662 33.488 215.176C33.6376 214.465 33.6189 214.054 33.3758 213.213C32.6279 210.632 29.7858 209.436 27.3364 210.651Z" fill="#4F3D38"/>
<path d="M241.858 219.009C238.959 219.757 237.202 221.533 236.435 224.506C236.08 225.833 236.08 227.011 236.416 227.797C236.697 228.507 237.837 229.554 238.698 229.909C239.595 230.283 241.222 230.227 242.362 229.797C245.036 228.788 247.934 225.048 247.934 222.58C247.934 219.887 245.055 218.205 241.858 219.009Z" fill="#4F3D38"/>
<path d="M230.452 221.944C228.47 222.374 227.086 223.16 225.703 224.655C224.207 226.263 223.702 228.264 224.263 230.209C224.917 232.49 227.198 233.518 229.723 232.658C230.377 232.434 230.994 232.004 231.873 231.125C232.92 230.078 233.2 229.648 233.705 228.302C234.491 226.282 234.678 224.244 234.154 223.253C233.556 222.131 232.06 221.589 230.452 221.944Z" fill="#4F3D38"/>
<path d="M358.551 223.608C358.364 223.964 358.159 224.73 358.121 225.31C358.028 226.17 358.102 226.544 358.458 227.292L358.906 228.208L358.963 226.843C359 226.095 359 224.917 358.963 224.225L358.906 222.973L358.551 223.608Z" fill="#4F3D38"/>
<path d="M250.402 224.02C247.616 225.403 245.747 230.227 246.738 233.518C247.336 235.575 249.748 237.071 251.562 236.529C253.132 236.061 255.189 234.117 256.012 232.303C256.61 230.994 256.592 228.47 255.993 226.918C254.927 224.225 252.534 222.973 250.402 224.02Z" fill="#4F3D38"/>
<path d="M299.915 223.87C299.017 224.151 297.559 225.646 297.316 226.544C297.054 227.479 297.054 228.507 297.316 229.18C297.465 229.573 297.447 229.722 297.26 229.779C296.68 229.947 295.259 231.667 295.034 232.452C294.567 234.247 295.334 236.304 296.867 237.276C298.475 238.305 300.027 238.23 301.766 237.071C302.495 236.585 303.075 236.342 303.486 236.342C303.822 236.342 305.15 236.753 306.44 237.258C307.749 237.763 310.348 238.772 312.255 239.52C314.162 240.249 316.724 241.24 317.958 241.727C320.333 242.643 320.968 243.073 321.137 243.952C321.548 245.971 322.352 247.13 323.754 247.766C324.727 248.215 326.335 248.215 327.326 247.766C328.242 247.355 329.401 246.046 329.644 245.148C329.85 244.4 329.869 243.409 329.663 242.699C329.551 242.306 329.7 242.082 330.598 241.203C331.682 240.137 332.075 239.315 332.075 238.099C332.075 236.566 330.878 234.734 329.476 234.135C328.635 233.78 326.933 233.78 326.073 234.154C325.718 234.303 325.101 234.696 324.727 235.014C323.455 236.136 323.549 236.155 317.472 233.799C314.443 232.621 310.722 231.181 309.189 230.601C306.197 229.461 305.711 229.068 305.711 227.853C305.711 226.787 305.262 225.777 304.402 224.936C303.187 223.72 301.597 223.346 299.915 223.87Z" fill="#4F3D38"/>
<path d="M63.8908 224.936C61.2357 225.609 59.1041 227.965 58.4871 230.919C58.1692 232.509 58.3936 233.275 59.5155 234.397C60.9365 235.818 62.4884 236.136 64.5639 235.425C66.0036 234.921 67.4247 233.967 68.5466 232.733C71.2204 229.816 71.1269 226.693 68.3596 225.272C67.4808 224.824 65.0875 224.637 63.8908 224.936Z" fill="#4F3D38"/>
<path d="M128.922 225.852C126.491 226.451 125.276 228.526 125.725 231.237C125.818 231.723 125.8 232.041 125.687 232.041C125.594 232.041 125.164 232.378 124.753 232.808C122.976 234.584 123.051 237.464 124.939 239.053C126.678 240.53 128.754 240.455 130.867 238.885C131.241 238.604 131.764 238.398 132.082 238.398C132.4 238.398 136.327 239.745 140.795 241.371C147.695 243.914 149.004 244.457 149.452 244.943C149.733 245.261 149.957 245.691 149.957 245.934C149.957 246.551 150.78 248.14 151.378 248.72C152.145 249.43 153.155 249.804 154.295 249.804C157.175 249.786 159.194 247.056 158.39 244.251C158.222 243.709 158.259 243.634 158.858 243.223C160.017 242.456 160.503 241.521 160.578 239.988C160.671 238.38 160.297 237.482 159.119 236.491C157.399 235.014 155.23 235.089 153.323 236.697C152.855 237.09 152.295 237.464 152.07 237.538C151.434 237.744 135.055 231.723 134.681 231.162C134.532 230.938 134.288 230.19 134.158 229.498C133.746 227.628 132.774 226.451 131.185 225.964C130.194 225.665 129.801 225.646 128.922 225.852Z" fill="#4F3D38"/>
<path d="M51.3071 226.694C49.2877 227.329 47.2496 229.012 46.5204 230.658C44.6319 234.939 48.2593 238.492 52.4477 236.435C54.2988 235.538 56.1125 233.07 56.7482 230.583C57.2343 228.694 56.823 227.385 55.5328 226.712C54.8597 226.357 52.3916 226.357 51.3071 226.694Z" fill="#4F3D38"/>
<path d="M72.3983 230.901C69.7432 232.154 67.4434 236.828 68.0604 239.782C68.6588 242.718 71.5195 244.158 74.0251 242.793C76.3997 241.502 78.0077 239.334 78.2508 237.09C78.5126 234.846 77.4842 232.116 75.9883 231.125C75.0534 230.489 73.5015 230.396 72.3983 230.901Z" fill="#4F3D38"/>
<path d="M234.603 232.508C232.939 232.845 232.303 233.051 230.265 233.967C227.872 235.014 225.254 236.622 223.982 237.781C222.636 239.034 222.094 240.1 222.075 241.558C222.056 243.69 223.141 244.681 226.75 245.896C231.91 247.616 234.678 249.505 236.342 252.497C238.137 255.675 241.465 257.751 243.783 257.115C245.41 256.666 246.457 255.208 247.448 252.048C248.14 249.879 248.495 247.336 248.495 244.569C248.495 240.119 247.953 238.585 245.41 236.042C244.214 234.827 243.596 234.378 242.306 233.743C240.437 232.845 238.155 232.228 236.828 232.247C236.304 232.247 235.295 232.378 234.603 232.508Z" fill="#4F3D38"/>
<path d="M254.479 236.959C253.45 237.445 251.263 239.633 250.72 240.68C249.655 242.755 249.486 244.606 250.178 246.233C251.188 248.57 253.375 249.262 255.918 248.009C258.293 246.85 259.714 243.522 259.172 240.343C258.63 237.146 256.816 235.837 254.479 236.959Z" fill="#4F3D38"/>
<path d="M54.5044 237.557C50.3909 238.324 45.7725 240.343 43.9775 242.119C42.8369 243.26 42.3134 244.849 42.65 246.177C43.0052 247.56 43.697 248.159 46.7635 249.692C52.1298 252.384 53.85 253.899 55.6076 257.526C57.253 260.911 59.2163 262.65 61.6096 262.855C63.9656 263.042 65.798 260.929 67.406 256.105C68.1352 253.899 68.5653 251.618 68.7336 249.075C68.9579 245.84 68.0417 243.596 65.5175 241.072C64.2274 239.782 63.7038 239.408 62.0584 238.623C59.2163 237.239 57.4587 236.996 54.5044 237.557Z" fill="#4F3D38"/>
<path d="M75.5022 244.064C73.5202 244.812 71.4073 246.682 70.4912 248.514C68.8083 251.842 70.192 255.339 73.2958 255.563C76.3249 255.788 78.8865 253.376 79.4848 249.711C79.8775 247.43 79.2979 245.186 78.1386 244.326C77.5029 243.877 76.3623 243.765 75.5022 244.064Z" fill="#4F3D38"/>
<path d="M194.234 249.43C193.467 249.655 192.458 250.328 192.308 250.702C191.691 252.141 191.953 253.581 193.131 255.339C194.159 256.891 195.225 257.882 196.571 258.611C197.618 259.172 197.88 259.247 199.245 259.247C200.591 259.247 200.834 259.19 201.676 258.686C202.928 257.9 203.433 256.984 203.433 255.395C203.433 253.245 202.087 251.188 199.993 250.178C198.273 249.355 195.618 249.019 194.234 249.43Z" fill="#4F3D38"/>
<path d="M181.613 250.103C180.51 250.44 179.257 251.431 178.808 252.291C178.434 253.039 178.434 254.553 178.808 255.47C179.238 256.479 180.902 258.143 182.305 258.966C185.147 260.649 187.933 260.724 189.616 259.209C191.747 257.283 191.523 254.722 189.017 251.954C187.652 250.477 186.418 249.916 184.287 249.86C183.127 249.823 182.267 249.916 181.613 250.103Z" fill="#4F3D38"/>
<path d="M174.844 257.152C173.891 257.526 172.844 258.648 172.488 259.714C172.301 260.275 172.189 261.229 172.189 262.126C172.208 265.473 173.928 267.754 177.368 268.988C178.042 269.231 178.733 269.437 178.902 269.437C180.229 269.437 181.912 268.259 182.51 266.913C183.24 265.323 182.866 262.874 181.594 260.911C179.706 257.994 176.845 256.405 174.844 257.152Z" fill="#4F3D38"/>
<path d="M2.52422 257.171C2.43073 257.208 1.8137 257.395 1.17797 257.564L0 257.9V261.303V264.706L1.47714 265.398C4.13224 266.632 6.65646 266.501 8.39537 265.005C9.34896 264.201 9.9099 263.117 9.9099 262.051C9.9099 260.406 8.43276 258.424 6.58167 257.62C5.77766 257.283 3.04776 256.965 2.52422 257.171Z" fill="#4F3D38"/>
<path d="M357.859 258.667C356.345 259.789 355.971 261.304 356.906 262.668C357.317 263.286 358.682 264.576 358.925 264.576C358.963 264.576 359 263.099 359 261.304C359 259.509 358.944 258.031 358.869 258.031C358.776 258.031 358.327 258.331 357.859 258.667Z" fill="#4F3D38"/>
<path d="M192.383 260.424C189.223 261.471 186.699 263.883 185.016 267.399C184.268 268.988 183.931 271.026 184.1 272.971C184.361 275.962 185.352 279.59 186.661 282.338C187.372 283.872 188.999 285.536 190.083 285.854C192.383 286.527 193.748 285.704 195.468 282.581C196.833 280.113 197.974 278.468 199.282 277.065C200.76 275.514 202.106 274.597 203.845 273.999C207.154 272.877 209.566 270.503 209.903 268.053C210.052 267.043 209.548 265.847 208.613 264.931C206.986 263.36 202.816 261.415 199.339 260.63C196.926 260.088 193.71 259.994 192.383 260.424Z" fill="#4F3D38"/>
<path d="M315.153 261.322C314.088 261.865 313.564 262.594 311.956 265.698C309.507 270.466 307.506 272.709 304.589 273.906C302.14 274.916 300.419 276.393 299.541 278.263C298.25 280.992 299.204 282.844 302.757 284.62C305.935 286.191 310.18 287.2 313.676 287.2C315.191 287.2 315.658 287.125 316.892 286.639C320.632 285.2 323.829 281.142 324.465 277.047C325.026 273.401 322.726 265.828 320.146 262.893C318.706 261.247 316.574 260.574 315.153 261.322Z" fill="#4F3D38"/>
<path d="M281.478 261.659C279.702 262.482 278.823 264.146 279.029 266.259C279.104 266.969 279.066 267.549 278.936 267.848C278.805 268.147 276.86 269.643 273.756 271.849C265.641 277.571 264.501 278.356 264.071 278.487C263.79 278.58 263.248 278.45 262.481 278.094C258.798 276.449 255.357 278.917 256.012 282.713C256.236 284.003 257.022 284.956 258.368 285.611C259.265 286.041 259.508 286.247 259.452 286.508C259.321 287.069 259.882 288.902 260.368 289.556C261.378 290.884 263.715 291.501 265.267 290.846C267.118 290.061 267.96 288.771 268.035 286.546C268.053 285.667 268.184 284.994 268.371 284.713C268.614 284.339 278.019 277.552 282.226 274.729C283.273 274.018 283.741 273.981 285.106 274.486C287.424 275.364 289.668 274.504 290.678 272.354C291.257 271.12 291.257 269.979 290.678 268.783C290.154 267.661 289.631 267.156 288.453 266.632C287.611 266.259 287.574 266.221 287.574 265.454C287.574 264.557 286.901 262.986 286.246 262.388C285.555 261.752 284.19 261.21 283.273 261.21C282.769 261.21 282.039 261.397 281.478 261.659Z" fill="#4F3D38"/>
<path d="M349.988 262.893C349.053 263.136 347.239 264.052 346.491 264.669C346.173 264.949 345.706 265.529 345.444 265.959C343.593 269.119 346.08 272.092 350.979 272.541C354.98 272.896 357.916 270.895 357.916 267.81C357.934 266.464 357.429 265.585 356.064 264.538C354.176 263.117 351.745 262.463 349.988 262.893Z" fill="#4F3D38"/>
<path d="M327.12 264.819C325.643 265.492 324.615 267.474 324.858 269.175C325.157 271.344 326.653 273.158 329.214 274.429C330.691 275.159 331.215 275.327 332.243 275.383C333.178 275.439 333.683 275.383 334.113 275.159C337.011 273.644 335.198 266.988 331.383 265.118C330.299 264.576 327.999 264.426 327.12 264.819Z" fill="#4F3D38"/>
<path d="M9.62943 266.539C5.44109 267.212 2.86078 268.296 1.15927 270.073L0 271.269V278.505V285.723L1.04708 287.125C2.54292 289.126 5.14193 291.706 6.50688 292.585C8.41406 293.819 10.0782 293.987 11.6488 293.108C13.0324 292.36 13.4251 291.201 13.8365 286.62C14.2291 282.095 15.164 279.795 17.7069 277.066C22.0261 272.41 22.0261 268.034 17.6882 266.707C16.3233 266.296 11.7797 266.202 9.62943 266.539Z" fill="#4F3D38"/>
<path d="M105.082 267.361C103.175 267.754 101.829 269.287 101.586 271.344C101.511 271.905 101.305 272.466 101.081 272.728C100.8 273.064 98.4445 273.999 92.4799 276.187C83.4675 279.478 83.7106 279.422 82.4765 278.318C81.4107 277.365 80.6254 277.047 79.3727 277.047C76.8484 277.047 75.1656 278.805 75.1656 281.46C75.1656 282.451 75.2591 282.787 75.7266 283.516C76.0257 283.984 76.568 284.564 76.9232 284.807C77.372 285.106 77.559 285.33 77.4655 285.517C77.4094 285.667 77.3159 286.302 77.2785 286.919C77.0915 289.35 78.98 291.313 81.4855 291.313C83.6919 291.313 85.1316 290.136 85.7112 287.873C85.8795 287.256 86.1787 286.583 86.3844 286.359C86.6087 286.134 87.5997 285.648 88.5907 285.274C100.053 281.048 103.287 279.908 103.661 279.908C103.904 279.908 104.559 280.207 105.101 280.6C106.354 281.46 107.55 281.834 108.541 281.665C111.14 281.235 112.786 278.823 112.188 276.336C112.001 275.551 111.739 275.14 110.972 274.373L110 273.401L110.093 271.999C110.168 270.802 110.112 270.447 109.757 269.736C108.915 267.997 106.933 266.987 105.082 267.361Z" fill="#4F3D38"/>
<path d="M174.545 270.727C174.022 270.952 173.386 271.681 173.161 272.298C173.049 272.597 172.956 273.457 172.956 274.224C172.956 278.524 176.228 282.096 179.837 281.722C181.22 281.572 182.249 280.861 182.866 279.627C183.857 277.645 183.277 275.233 181.332 273.289C179.463 271.438 175.947 270.11 174.545 270.727Z" fill="#4F3D38"/>
<path d="M143.937 271.868C142.609 272.578 142.31 273.195 140.982 278.038C139.804 282.394 138.234 284.956 135.784 286.564C132.4 288.808 130.642 292.51 131.858 294.866C132.662 296.437 134.719 297.409 138.458 297.989C141.057 298.381 145.732 298.232 147.788 297.689C150.649 296.923 152.912 294.959 154.351 291.968C155.997 288.546 156.24 285.835 155.211 282.712C153.678 278.15 149.639 272.615 147.265 271.811C146.049 271.4 144.797 271.419 143.937 271.868Z" fill="#4F3D38"/>
<path d="M358.308 272.522C357.486 274.093 356.943 276.15 356.812 278.225C356.682 280.488 356.906 281.572 358.028 283.835L358.907 285.611L358.963 282.114C358.981 280.188 358.981 277.01 358.963 275.028L358.907 271.419L358.308 272.522Z" fill="#4F3D38"/>
<path d="M156.819 272.69C155.268 273.27 154.445 274.56 154.445 276.393C154.463 279.16 156.558 281.329 160.035 282.133C162.017 282.6 163.158 282.619 164.168 282.226C165.327 281.759 165.757 281.011 165.738 279.496C165.738 278.449 165.626 278.038 165.047 276.86C164.243 275.252 162.971 273.868 161.531 273.102C160.709 272.634 160.26 272.541 159.026 272.485C158.053 272.447 157.287 272.522 156.819 272.69Z" fill="#4F3D38"/>
<path d="M344.322 273.345C342.172 274.317 341.574 276.841 342.864 279.534C343.63 281.142 344.528 282.151 345.855 282.862C347.856 283.928 350.941 284.04 352.512 283.124C354.213 282.133 354.793 279.496 353.746 277.458C352.175 274.373 346.996 272.111 344.322 273.345Z" fill="#4F3D38"/>
<path d="M328.279 277.29C327.494 277.72 326.597 278.861 326.26 279.851C325.643 281.759 326.634 284.545 328.709 286.658C330.336 288.303 331.589 288.957 333.216 288.976C334.244 288.976 334.562 288.901 335.235 288.453C337.759 286.77 337.666 281.759 335.048 279.141C333.272 277.365 329.869 276.43 328.279 277.29Z" fill="#4F3D38"/>
<path d="M220.224 282.413C219.831 282.544 219.308 282.806 219.027 282.974C218.429 283.385 217.494 284.844 217.345 285.648C217.232 286.209 217.176 286.265 216.541 286.265C215.007 286.284 213.194 287.742 212.764 289.294C212.334 290.921 212.951 292.903 214.166 293.838C215.176 294.604 216.335 294.885 217.943 294.735L219.327 294.623L220.112 295.446C221.851 297.241 231.181 308.235 231.349 308.721C231.499 309.095 231.462 309.563 231.237 310.535C230.975 311.601 230.957 312.031 231.125 312.797C231.536 314.779 233.275 316.182 235.332 316.182C237.239 316.182 239.146 314.686 239.446 312.966C239.558 312.33 239.614 312.292 240.418 312.162C244.756 311.507 245.728 305.898 241.839 304.009C241.054 303.635 240.81 303.617 239.053 303.729L237.127 303.86L236.566 303.336C235.332 302.196 225.31 290.322 225.198 289.892C225.123 289.612 225.235 289.014 225.478 288.397C226.637 285.349 224.955 282.488 221.869 282.226C221.309 282.17 220.617 282.245 220.224 282.413Z" fill="#4F3D38"/>
<path d="M160.522 284.545C158.297 285.592 157.549 288.528 158.858 290.958C159.157 291.482 159.905 292.417 160.503 293.034C162.803 295.296 165.963 296.231 167.907 295.203C170.095 294.025 170.413 290.585 168.618 287.574C167.477 285.686 165.327 284.526 162.504 284.302C161.531 284.209 161.12 284.265 160.522 284.545Z" fill="#4F3D38"/>
<path d="M350.305 285.592C349.894 285.723 349.371 285.928 349.146 286.059C348.043 286.639 347.819 288.696 348.66 290.397C349.352 291.781 351.222 293.632 352.587 294.249C354.569 295.184 357.093 295.034 358.514 293.912C359 293.539 359 293.501 359 290.771V288.023L358.308 287.35C356.607 285.704 352.699 284.844 350.305 285.592Z" fill="#4F3D38"/>
<path d="M321.361 286.714C320.987 286.863 320.389 287.181 320.034 287.462C319.248 288.041 318.426 289.649 318.426 290.565C318.426 291.575 319.454 293.501 320.651 294.679C322.053 296.081 323.175 296.586 325.101 296.698C329.607 296.941 332.374 294.099 330.841 290.809C330.093 289.238 327.625 287.405 325.362 286.751C324.128 286.396 322.333 286.377 321.361 286.714Z" fill="#4F3D38"/>
<path d="M38.5925 287.275C37.5828 287.742 36.7975 288.602 36.4423 289.593C36.274 290.098 36.1805 290.154 35.713 290.061C34.1985 289.762 32.1978 290.902 31.3751 292.51C30.5524 294.118 31.0199 296.399 32.4035 297.577C33.2636 298.325 34.0863 298.606 35.4326 298.606C35.9935 298.606 36.5731 298.737 36.891 298.942C37.2463 299.148 38.9478 301.71 42.089 306.739C47.1936 314.948 47.1562 314.836 46.3334 316.406C45.7725 317.472 45.7538 319.155 46.3147 320.202C47.1375 321.754 48.4463 322.539 50.2039 322.539C51.9615 322.539 53.233 321.754 53.9996 320.221C54.4109 319.398 54.4857 319.36 55.215 319.36C56.449 319.36 57.3652 319.024 58.1879 318.276C59.1789 317.378 59.6464 316.369 59.6464 315.06C59.6464 313.751 59.1789 312.741 58.1879 311.844C57.2904 311.021 56.3742 310.741 54.7849 310.778C53.9061 310.797 53.5134 310.722 53.1395 310.442C52.8777 310.255 50.6153 306.814 48.1284 302.794C44.6132 297.185 43.5849 295.371 43.5662 294.904C43.5662 294.548 43.7905 293.913 44.0523 293.445C44.7441 292.286 44.9124 291.407 44.6693 290.248C44.1271 287.499 41.1728 286.059 38.5925 287.275Z" fill="#4F3D38"/>
<path d="M0 290.772C0 293.501 0.130885 293.819 0.673125 292.51C1.04708 291.613 0.99099 289.874 0.560938 288.92C0.373958 288.49 0.168281 288.135 0.0934896 288.135C0.0373958 288.135 0 289.313 0 290.772Z" fill="#4F3D38"/>
<path d="M309.226 288.303C306.982 289.033 305.861 290.753 306.253 292.903C306.496 294.231 306.87 294.904 307.861 295.895C309.264 297.316 311.171 298.045 313.433 298.045C315.116 298.045 316.182 297.764 317.004 297.091C318.594 295.764 318.145 293.539 315.696 290.79C313.975 288.864 311.021 287.724 309.226 288.303Z" fill="#4F3D38"/>
<path d="M156.558 295.053C154.463 295.483 152.968 296.96 152.65 298.961C152.444 300.195 152.949 301.186 154.52 302.682C156.576 304.626 158.502 305.243 160.858 304.701C162.522 304.308 163.756 303.673 164.616 302.719C165.477 301.765 165.664 301.279 165.664 300.027C165.664 297.802 163.42 295.876 159.923 295.146C158.521 294.847 157.754 294.829 156.558 295.053Z" fill="#4F3D38"/>
<path d="M144.591 299.354C141.506 299.971 140.085 302.626 141.412 305.281C142.721 307.861 145.975 309.151 149.359 308.441C151.902 307.917 153.136 306.833 153.136 305.15C153.136 304.103 152.5 303.018 151.21 301.822C149.097 299.896 146.61 298.961 144.591 299.354Z" fill="#4F3D38"/>
<path d="M0 316.145L0.0186979 322.072L0.785312 321.23C2.7299 319.061 3.66479 315.434 2.89818 312.891C2.59901 311.844 1.57062 310.741 0.617031 310.423L0 310.217V316.145Z" fill="#4F3D38"/>
<path d="M356.999 310.404C356.008 310.685 354.101 312.106 353.353 313.097C352.4 314.368 352.082 315.397 352.082 317.229C352.082 320.258 353.148 322.203 355.111 322.745C356.102 323.007 357.542 322.857 358.308 322.39L358.907 322.053L358.963 316.126L359 310.199L358.308 310.217C357.916 310.217 357.336 310.311 356.999 310.404Z" fill="#4F3D38"/>
<path d="M6.63776 311.545C5.12322 312.423 4.39401 314.181 4.4127 316.93C4.4127 319.809 5.42239 322.072 7.25479 323.362C7.89052 323.81 8.30187 323.941 9.23677 323.997C9.89119 324.035 10.7326 323.979 11.1066 323.848C11.9854 323.567 12.939 322.427 13.5934 320.875C14.0234 319.828 14.0982 319.379 14.1169 317.864C14.1169 316.294 14.0608 315.957 13.5934 315.041C12.9763 313.77 11.4057 312.087 10.3773 311.601C9.96598 311.414 9.12458 311.227 8.50755 311.189C7.59135 311.133 7.23609 311.208 6.63776 311.545Z" fill="#4F3D38"/>
<path d="M257.059 313.657C256.068 313.975 255.245 314.705 254.74 315.752C254.292 316.668 254.292 320.071 254.759 322.258C255.6 326.279 257.414 330.355 259.153 332.094C262.668 335.646 269.661 336.263 273.812 333.402C276.897 331.271 281.011 326.335 281.965 323.623C282.787 321.267 282.17 319.099 280.413 318.201C279.496 317.752 278.599 317.696 274.392 317.939C270.11 318.182 267.586 317.659 265.305 316.088C264.65 315.639 263.753 315.041 263.323 314.779C261.472 313.62 258.704 313.134 257.059 313.657Z" fill="#4F3D38"/>
<path d="M323.605 314.2C322.539 314.592 321.679 315.34 321.212 316.312C320.819 317.079 320.763 317.453 320.8 318.855C320.838 320.407 320.819 320.519 320.333 321.024C319.66 321.754 306.328 331.121 305.786 331.252C305.524 331.327 304.944 331.159 304.271 330.841C302.345 329.943 300.644 330.055 299.26 331.196C297.241 332.86 297.185 335.983 299.111 337.684C299.597 338.096 300.233 338.507 300.55 338.582C301.093 338.731 301.13 338.806 301.242 339.76C301.392 341.106 301.859 342.041 302.775 342.826C304.739 344.509 307.581 344.079 309.151 341.835C309.638 341.143 309.712 340.863 309.787 339.423C309.843 338.301 309.974 337.647 310.18 337.366C310.348 337.142 313.714 334.674 317.659 331.888C322.894 328.223 324.989 326.839 325.363 326.839C325.662 326.839 326.316 327.008 326.84 327.213C329.083 328.092 331.346 327.307 332.356 325.287C333.496 322.969 332.412 320.071 330.093 319.267C329.383 319.024 329.364 319.005 329.252 317.92C329.121 316.649 328.803 315.939 327.924 315.116C326.821 314.05 325.082 313.676 323.605 314.2Z" fill="#4F3D38"/>
<path d="M77.7086 314.387C76.5867 314.817 76.0445 315.266 75.5396 316.294C75.1283 317.079 75.0722 317.435 75.1096 318.893C75.1656 322.595 76.8859 327.606 79.2605 331.103C81.3173 334.15 85.4308 335.777 89.75 335.254C90.6288 335.141 91.7694 334.936 92.2742 334.786C95.4903 333.87 99.7908 329.457 102.222 324.596C103.063 322.913 103.119 322.745 103.119 321.324C103.119 318.968 102.315 317.865 100.24 317.304C99.5851 317.135 98.9494 317.154 96.6122 317.491C94.4432 317.808 93.2278 317.883 91.4328 317.808C88.5908 317.715 87.2819 317.322 85.169 315.995C84.3463 315.471 83.2058 314.873 82.6448 314.667C81.2986 314.144 78.737 314.013 77.7086 314.387Z" fill="#4F3D38"/>
<path d="M186.325 314.574C186.231 314.63 185.913 314.705 185.633 314.761C184.997 314.91 184.062 315.696 183.688 316.387C182.099 319.491 184.474 325.381 187.839 326.653C189.055 327.101 189.597 327.12 190.85 326.746C192.009 326.41 193.019 325.362 193.355 324.184C193.486 323.736 193.598 322.614 193.598 321.698C193.598 320.183 193.542 319.884 193.019 318.762C192.289 317.21 191.093 316.013 189.541 315.266C188.494 314.761 186.811 314.405 186.325 314.574Z" fill="#4F3D38"/>
<path d="M176.789 316.593C175.48 317.042 174.115 318.407 173.18 320.202C172.488 321.548 172.376 323.885 172.937 325.362C173.573 327.045 174.695 328.634 175.555 329.083C177.817 330.224 180.715 328.859 181.744 326.166C182.566 323.997 182.436 320.707 181.463 318.799C180.454 316.836 178.603 315.957 176.789 316.593Z" fill="#4F3D38"/>
<path d="M346.379 318.837C345.257 319.435 343.78 321.062 343.069 322.483C342.546 323.567 342.434 323.979 342.396 325.381C342.34 326.802 342.378 327.139 342.789 327.999C344.116 330.915 347.033 331.589 349.408 329.569C350.754 328.41 351.67 325.755 351.446 323.679C351.147 321.136 350.623 319.734 349.651 318.911C348.903 318.294 347.482 318.257 346.379 318.837Z" fill="#4F3D38"/>
<path d="M15.8745 321.473C14.9396 322.09 14.0982 323.493 13.5373 325.288C13.1072 326.634 13.0512 327.083 13.1259 328.391C13.2381 330.205 13.556 331.009 14.5096 332.075C15.4632 333.141 16.3794 333.571 17.6695 333.571C18.9784 333.571 19.5393 333.29 20.6425 332.056C22.0822 330.467 22.4749 328.036 21.6709 325.662C20.4929 322.128 17.8004 320.183 15.8745 321.473Z" fill="#4F3D38"/>
<path d="M196.141 322.315C195.3 323.156 195.038 323.96 194.888 326.11C194.757 328.017 195.019 329.289 195.823 330.822C197.076 333.234 199.619 334.337 201.657 333.402C202.629 332.954 203.115 332.411 203.732 331.065C204.163 330.112 204.219 329.812 204.144 328.541C204.032 326.596 203.377 325.25 201.769 323.642C200.311 322.202 199.152 321.604 197.805 321.604C196.945 321.604 196.777 321.679 196.141 322.315Z" fill="#4F3D38"/>
<path d="M0.243073 324.895C0.0560938 324.97 0 326.896 0 333.59V342.172L0.523542 342.284C2.82339 342.789 3.53391 343.088 5.59068 344.435C7.31089 345.575 8.9376 346.099 10.7513 346.099C12.8642 346.099 14.0047 345.575 14.7714 344.191C16.1363 341.761 14.8088 335.123 11.948 330.093C10.9383 328.298 9.77901 327.12 8.26448 326.316C6.18901 325.213 5.16063 324.933 2.7112 324.858C1.47714 324.82 0.35526 324.839 0.243073 324.895Z" fill="#4F3D38"/>
<path d="M357.598 325.176C354.382 325.924 349.464 330.785 347.071 335.609C345.986 337.815 346.005 340.059 347.164 341.443C348.193 342.658 349.501 342.901 352.699 342.471C353.914 342.303 355.821 342.172 356.962 342.172H359V333.571C359 323.923 359.15 324.82 357.598 325.176Z" fill="#4F3D38"/>
<path d="M250.066 325.98C249.112 326.41 248.159 327.363 247.617 328.485C247.168 329.42 247.112 329.756 247.112 331.327C247.112 332.823 247.186 333.29 247.617 334.3C249.056 337.703 251.487 339.105 253.432 337.628C254.123 337.086 255.227 335.104 255.675 333.59C256.049 332.281 256.068 329.962 255.675 328.859C255.32 327.793 254.292 326.559 253.338 326.092C252.497 325.662 250.926 325.606 250.066 325.98Z" fill="#4F3D38"/>
<path d="M72.2113 326.84C70.7903 327.158 69.2571 328.747 68.8083 330.392C68.0604 333.085 69.3319 336.843 71.5756 338.563C73.9689 340.396 76.0818 338.975 77.2411 334.749C77.9142 332.281 77.4655 329.682 76.1379 328.279C75.0534 327.12 73.5015 326.559 72.2113 326.84Z" fill="#4F3D38"/>
<path d="M118.377 327.438C117.292 327.625 116.245 328.335 115.609 329.308C114.861 330.43 114.768 332.355 115.422 333.627L115.89 334.543L115.31 335.366C114.843 336.039 114.712 336.432 114.656 337.385C114.562 338.825 114.824 339.741 115.609 340.601C116.451 341.574 117.479 342.022 118.825 342.022C120.564 342.022 121.78 341.274 122.808 339.535C123.537 338.339 123.313 338.339 132.755 338.918C138.14 339.236 141.487 339.517 141.88 339.666C142.347 339.853 142.59 340.134 142.889 340.807C143.731 342.77 145.657 344.042 147.452 343.78C150.518 343.369 152.126 340.377 150.799 337.535L150.35 336.563L150.948 335.702C151.509 334.917 151.547 334.749 151.547 333.328C151.547 331.925 151.491 331.72 150.986 330.953C150.612 330.411 150.069 329.943 149.396 329.588C148.499 329.121 148.2 329.065 147.134 329.121C145.675 329.196 144.647 329.775 143.824 330.953C142.833 332.374 143.076 332.355 135.466 331.888C124.865 331.271 124.622 331.252 124.061 330.878C123.78 330.691 123.425 330.299 123.257 329.981C122.172 327.98 120.433 327.064 118.377 327.438Z" fill="#4F3D38"/>
<path d="M169.123 327.569C166.561 328.728 165.084 333.346 166.243 336.488C167.141 338.9 169.403 340.302 171.479 339.741C172.675 339.423 174.134 337.909 174.526 336.581C175.106 334.618 174.807 332.599 173.629 330.224C172.9 328.784 172.058 327.849 171.142 327.475C170.357 327.139 170.02 327.157 169.123 327.569Z" fill="#4F3D38"/>
<path d="M101.848 329.345C99.6412 330.131 98.351 332.3 98.351 335.179C98.351 338.432 99.1177 340.452 100.632 341.2C101.492 341.63 101.53 341.63 102.539 341.349C104.035 340.919 105.606 339.405 106.522 337.535C107.12 336.32 107.251 335.89 107.307 334.637C107.382 332.898 107.176 332.113 106.391 330.916C105.381 329.383 103.53 328.747 101.848 329.345Z" fill="#4F3D38"/>
<path d="M184.548 329.476C180.528 330.523 178.285 332.374 176.284 336.301C173.984 340.788 172.937 345.612 173.816 347.707C174.994 350.511 176.882 350.885 180.902 349.109C182.136 348.548 183.614 347.95 184.175 347.744C187.185 346.697 189.933 346.566 192.514 347.351C197.656 348.885 202.031 346.959 201.694 343.294C201.377 339.685 196.945 333.122 193.056 330.486C191.055 329.14 187.484 328.709 184.548 329.476Z" fill="#4F3D38"/>
<path d="M280.469 330C278.954 330.486 277.926 331.458 277.159 333.104C276.673 334.132 276.636 334.394 276.636 336.469C276.636 339.162 276.897 340.209 277.851 341.293C278.524 342.06 278.599 342.079 279.665 342.079C281.03 342.06 282.021 341.536 283.423 340.041C285.237 338.133 286.097 335.347 285.536 333.253C285.237 332.15 284.208 330.766 283.386 330.336C282.6 329.925 281.198 329.757 280.469 330Z" fill="#4F3D38"/>
<path d="M257.321 335.946C256.535 336.32 255.974 337.067 255.189 338.713C254.628 339.91 254.572 340.171 254.572 341.798C254.572 343.948 255.002 345.051 256.498 346.678C257.751 348.043 258.966 348.604 260.499 348.492C261.883 348.398 262.781 347.725 263.547 346.192C264.089 345.108 264.108 344.977 264.108 342.546C264.108 340.19 264.071 339.947 263.603 338.937C262.481 336.525 261.247 335.628 259.134 335.628C258.405 335.628 257.695 335.759 257.321 335.946Z" fill="#4F3D38"/>
<path d="M79.5596 336.45C78.7369 336.824 78.0638 337.628 77.372 339.087C76.811 340.302 76.7549 340.545 76.7549 342.265C76.7549 343.929 76.811 344.247 77.2785 345.201C78.8865 348.454 82.4765 350.062 84.5894 348.473C87.0575 346.585 87.1697 341.125 84.795 338.002C83.5984 336.45 81.1864 335.721 79.5596 336.45Z" fill="#4F3D38"/>
<path d="M91.7133 337.572C88.8712 338.9 86.9827 343.649 87.9737 346.996C88.5534 348.922 89.9557 349.931 91.8255 349.782C93.8262 349.614 96.2382 347.837 97.2292 345.818C98.2763 343.686 97.8088 339.704 96.313 338.227C95.1537 337.067 93.34 336.805 91.7133 337.572Z" fill="#4F3D38"/>
<path d="M269.474 337.722C266.37 339.218 264.389 344.79 265.884 347.875C266.52 349.202 267.474 349.745 269.138 349.745C270.241 349.745 270.652 349.651 271.55 349.202C273.008 348.454 274.392 347.09 275.009 345.781C275.944 343.743 275.719 340.19 274.541 338.657C273.55 337.348 271.157 336.899 269.474 337.722Z" fill="#4F3D38"/>
<path d="M231.574 341.312C228.788 342.733 225.272 346.753 223.291 350.81C222.767 351.876 222.243 353.241 222.113 353.858C221.888 354.999 221.982 356.756 222.356 358.196L222.543 359H232.901C238.716 359 243.26 358.925 243.26 358.832C243.26 358.738 243.11 358.551 242.942 358.42C242.4 357.972 240.437 355.223 239.894 354.12C238.922 352.213 238.623 351.016 238.529 348.623C238.38 345.201 237.314 342.639 235.538 341.461C234.453 340.732 232.826 340.676 231.574 341.312Z" fill="#4F3D38"/>
<path d="M217.363 343.051C214.559 344.06 212.221 347.258 212.221 350.063C212.221 352.082 213.343 353.092 215.475 353.054C216.671 353.035 218.71 352.493 219.962 351.858C221.122 351.259 222.599 349.745 223.066 348.679C223.665 347.295 223.552 345.519 222.804 344.453C221.776 342.957 219.364 342.34 217.363 343.051Z" fill="#4F3D38"/>
<path d="M46.0717 345.238C41.5094 346.341 40.2005 351.222 43.8466 353.484C44.7067 354.008 44.8563 354.045 46.6513 354.045C48.5024 354.045 48.5772 354.026 50.1291 353.26C53.0086 351.82 54.4483 350.081 54.1492 348.436C53.9622 347.463 52.6907 346.248 51.3071 345.743C49.2503 344.958 47.7919 344.827 46.0717 345.238Z" fill="#4F3D38"/>
<path d="M57.2717 350.754C54.841 351.596 52.7468 353.671 52.7281 355.279C52.7281 356.158 53.2891 357.691 53.8687 358.346L54.4483 359H59.1228H63.816L64.6948 358.102C66.2467 356.569 66.3589 354.849 65.0127 353.091C63.3111 350.866 59.9081 349.838 57.2717 350.754Z" fill="#4F3D38"/>
<path d="M35.9374 354.157C34.7033 354.363 34.0489 354.699 33.2075 355.56C32.3474 356.438 31.9361 357.841 32.2726 358.701C32.3661 358.963 33.3945 359 41.8646 359L51.3258 358.981L50.5779 358.327C47.6423 355.728 39.8827 353.522 35.9374 354.157Z" fill="#4F3D38"/>
<path d="M215.082 354.905C213.549 355.167 212.147 355.784 211.193 356.607C210.445 357.261 209.417 358.589 209.417 358.907C209.417 358.963 211.866 359 214.858 359H220.299L220.168 358.308C219.869 356.719 218.672 355.279 217.326 354.905C216.522 354.681 216.447 354.681 215.082 354.905Z" fill="#4F3D38"/>
<path d="M327.924 355.148C326.559 355.634 325.811 356.083 324.727 357.112C324.091 357.691 323.474 358.589 323.474 358.907C323.474 358.963 326.26 359 329.644 359C335.403 359 335.815 358.981 335.815 358.663C335.796 357.99 335.085 356.812 334.225 356.046C332.636 354.643 330.28 354.307 327.924 355.148Z" fill="#4F3D38"/>
<path d="M149.92 357.055C149.004 357.336 146.891 358.495 146.685 358.813C146.61 358.944 148.424 359 151.771 359L156.969 358.981L156.09 358.177C155.604 357.729 154.8 357.224 154.314 357.055C153.229 356.681 151.117 356.681 149.92 357.055Z" fill="#4F3D38"/>
</g>
<defs>
<clipPath id="clip0_111_101">
<rect width="359" height="359" fill="white"/>
</clipPath>
</defs>
</svg>
