<svg width="52" height="54" viewBox="0 0 52 54" fill="none" xmlns="http://www.w3.org/2000/svg">
<path d="M12.3124 5.53945C12.5611 5.53896 12.5611 5.53896 12.8149 5.53845C12.9861 5.54252 13.1573 5.5466 13.3336 5.55079C13.5055 5.54892 13.6773 5.54705 13.8544 5.54512C15.1017 5.55756 15.1017 5.55756 15.6199 5.92959C15.998 6.43714 16.0112 6.74179 16.0236 7.36803C16.0292 7.56616 16.0348 7.7643 16.0405 7.96843C16.043 8.17449 16.0454 8.38055 16.0479 8.59286C16.0531 8.80156 16.0582 9.01026 16.0635 9.22529C16.0757 9.74031 16.0848 10.2552 16.0912 10.7703C16.597 10.9253 16.728 10.9646 17.2348 10.749C17.5038 10.5905 17.5038 10.5905 17.7782 10.4288C17.8795 10.3696 17.9808 10.3104 18.0852 10.2494C18.4608 10.0278 18.8334 9.80179 19.2056 9.57486C19.3669 9.47664 19.5281 9.37843 19.6942 9.27724C20.5812 8.73535 21.4661 8.19031 22.3491 7.64221C22.516 7.53916 22.6829 7.4361 22.8549 7.32992C23.1976 7.11422 23.5369 6.8932 23.873 6.66763C24.1203 6.50347 24.1203 6.50347 24.3727 6.33599C24.5188 6.2365 24.665 6.13701 24.8156 6.0345C25.3564 5.77148 25.7031 5.75675 26.2996 5.81764C26.6539 5.9446 26.6539 5.9446 26.9728 6.12518C27.0937 6.19245 27.2147 6.25972 27.3393 6.32903C27.5313 6.44046 27.5313 6.44046 27.727 6.55414C27.9327 6.67036 27.9327 6.67036 28.1424 6.78893C29.4632 7.54061 30.762 8.3277 32.0587 9.11871C33.0129 9.69838 33.9713 10.2713 34.9291 10.8451C35.0342 10.908 35.1393 10.971 35.2475 11.0359C36.5306 11.8048 37.8153 12.5711 39.1033 13.3321C41.1962 14.5689 43.2812 15.8185 45.3643 17.0713C45.68 17.2611 45.9958 17.4507 46.3117 17.6402C46.8255 17.9486 47.3388 18.2578 47.8517 18.5676C48.1348 18.7383 48.4183 18.9084 48.7018 19.0785C51.3229 20.6647 51.3229 20.6647 51.9071 21.5296C51.9071 21.6987 51.9071 21.8678 51.9071 22.042C51.0096 22.5766 50.2656 22.6437 49.2469 22.6717C49.103 22.6776 48.9591 22.6834 48.8109 22.6894C48.4589 22.7034 48.1067 22.7145 47.7545 22.7251C47.5255 23.1772 47.5594 23.5162 47.5588 24.0227C47.5581 24.226 47.5574 24.4292 47.5567 24.6387C47.5568 24.8629 47.5569 25.0871 47.557 25.3181C47.5564 25.5557 47.5558 25.7933 47.5551 26.0308C47.5538 26.5432 47.5529 27.0555 47.5523 27.5679C47.5513 28.3781 47.5484 29.1883 47.5452 29.9985C47.5441 30.2758 47.543 30.553 47.5419 30.8303C47.5413 30.9691 47.5408 31.108 47.5402 31.2511C47.5329 33.1377 47.5272 35.0243 47.5251 36.9109C47.5237 38.183 47.5198 39.455 47.5131 40.727C47.5097 41.4003 47.5075 42.0735 47.5084 42.7467C47.5092 43.3802 47.5068 44.0136 47.502 44.6471C47.5002 44.9902 47.5019 45.3333 47.5036 45.6763C47.5015 45.8811 47.4993 46.0858 47.4971 46.2967C47.4965 46.5631 47.4965 46.5631 47.4959 46.8349C47.3852 47.4464 47.1543 47.7328 46.7164 48.1717C45.7986 48.4737 44.8107 48.3946 43.8496 48.4023C43.5917 48.4051 43.3338 48.4098 43.0759 48.4163C42.7022 48.4257 42.3287 48.4294 41.9549 48.4319C41.7316 48.4353 41.5084 48.4387 41.2784 48.4421C40.6747 48.3448 40.2668 48.2266 39.8165 47.8043C39.3758 47.0874 39.4844 46.2088 39.4953 45.3972C39.4938 45.1918 39.4922 44.9864 39.4907 44.7747C39.4865 44.1173 39.4892 43.4602 39.4926 42.8027C39.4924 42.1509 39.4907 41.499 39.4872 40.8472C39.4855 40.4421 39.4857 40.037 39.4883 39.6319C39.4877 38.2398 39.3303 36.9066 39.1033 35.5338C39.0683 35.2948 39.0333 35.0557 38.9986 34.8166C38.3932 31.2352 36.7066 28.0111 35.0469 24.8039C34.9692 24.6535 34.8916 24.5032 34.8115 24.3482C34.7424 24.216 34.6733 24.0838 34.6021 23.9476C34.1704 23.0137 34.1475 22.028 34.2587 21.0173C34.4942 20.4586 34.8648 20.0774 35.2968 19.651C36.6569 19.5121 37.4911 19.9327 38.5843 20.6971C38.6985 20.8027 38.8127 20.9084 38.9303 21.0173C38.9303 21.13 38.9303 21.2427 38.9303 21.3589C39.0445 21.3589 39.1587 21.3589 39.2764 21.3589C39.1307 19.7329 38.8847 18.6321 37.6218 17.5383C36.7597 16.9471 35.7884 16.911 34.7778 17.0893C33.8402 17.4637 33.0198 17.9997 32.204 18.5836C31.1261 19.3497 30.1933 19.4267 28.8949 19.3095C28.5899 19.2322 28.2869 19.1467 27.9866 19.0533C26.4003 18.5822 24.7559 18.5974 23.2149 19.192C22.3355 19.4668 21.3927 19.485 20.5297 19.1534C20.1313 18.9384 19.7565 18.7039 19.3786 18.4555C17.3708 17.1946 17.3708 17.1946 15.0531 17.0893C14.513 17.3577 14.0997 17.698 13.6689 18.114C13.577 18.2025 13.4851 18.291 13.3904 18.3822C12.7263 19.1445 12.7265 19.8388 12.7733 20.8192C12.7834 20.9409 12.7934 21.0626 12.8037 21.1881C12.9371 21.0914 13.0705 20.9948 13.2079 20.8952C13.3814 20.7699 13.555 20.6447 13.7338 20.5156C13.9064 20.3908 14.079 20.266 14.2569 20.1374C14.9705 19.6371 15.3797 19.5637 16.2642 19.651C16.7793 19.9538 17.2034 20.3096 17.4754 20.8465C17.506 21.1872 17.5217 21.5293 17.5295 21.8712C17.5392 22.1459 17.5392 22.1459 17.5491 22.4262C17.3681 23.999 16.4696 25.4271 15.7648 26.8251C14.9738 28.4 14.2098 29.9743 13.6256 31.6378C13.5802 31.7671 13.5347 31.8964 13.4879 32.0297C12.602 34.6864 12.4358 37.4729 12.4226 40.2497C12.4214 40.4535 12.4203 40.6574 12.4191 40.8674C12.4155 41.7146 12.4134 42.5618 12.4179 43.4091C12.4205 44.0354 12.4166 44.6614 12.4117 45.2878C12.4144 45.4792 12.4171 45.6706 12.4198 45.8678C12.4034 47.152 12.4034 47.152 12.0634 47.6269C11.0081 48.5309 9.75424 48.3972 8.4442 48.4117C8.19346 48.4153 7.94275 48.4212 7.69212 48.4292C7.32907 48.4406 6.96649 48.4453 6.60329 48.4486C6.38641 48.4528 6.16953 48.4571 5.94608 48.4615C5.3247 48.3345 5.06578 48.1762 4.6778 47.6839C4.27347 46.8578 4.38337 45.8964 4.39276 44.9991C4.39214 44.7625 4.39114 44.526 4.38979 44.2894C4.38768 43.7814 4.38827 43.2735 4.39097 42.7655C4.39518 41.9625 4.39318 41.1596 4.39033 40.3566C4.3861 38.9426 4.3871 37.5286 4.38926 36.1146C4.39248 33.9838 4.39164 31.8531 4.38579 29.7224C4.3838 28.9238 4.38457 28.1254 4.38753 27.3268C4.38889 26.8308 4.38816 26.3348 4.38689 25.8388C4.38668 25.4986 4.38908 25.1583 4.39154 24.818C4.39062 24.6162 4.38971 24.4143 4.38876 24.2064C4.38908 24.0306 4.38941 23.8548 4.38975 23.6737C4.35908 23.2347 4.35908 23.2347 4.10359 22.9251C3.58603 22.5767 2.96453 22.6468 2.35745 22.6397C1.42452 22.6287 0.777804 22.617 0 22.042C0.0190151 21.4038 0.170609 21.1905 0.627211 20.7291C2.26436 19.4416 4.09944 18.3763 5.85619 17.2569C8.55373 15.7752 8.55373 15.7752 10.3814 13.5029C10.4499 12.968 10.4455 12.4396 10.4395 11.9011C10.4417 11.5892 10.444 11.2773 10.4463 10.9655C10.447 10.4771 10.4463 9.98885 10.4438 9.50051C10.4423 9.02687 10.446 8.55347 10.4504 8.07984C10.448 7.9343 10.4457 7.78876 10.4434 7.63881C10.4526 6.9082 10.4895 6.58864 10.9377 5.98184C11.4564 5.62122 11.6876 5.53894 12.3124 5.53945Z" fill="#FF723A"/>
<path d="M25.7697 25.3831C25.9297 25.3819 26.0898 25.3806 26.2546 25.3794C27.5793 25.3913 28.9375 25.5776 30.0412 26.3544C30.4522 26.824 30.4522 26.824 30.5819 27.3791C30.2753 28.8922 29.1038 30.0524 27.8568 30.9228C27.4548 31.0975 27.0512 31.2687 26.6456 31.4352C26.6256 32.7535 26.6102 34.0718 26.6008 35.3902C26.5963 36.0025 26.5902 36.6146 26.5804 37.2268C26.5709 37.8182 26.5658 38.4094 26.5636 39.0008C26.5612 39.3351 26.5544 39.6694 26.5476 40.0037C26.5155 41.249 26.5155 41.249 27.0604 42.3256C27.4458 42.6518 27.7634 42.8992 28.2245 43.1018C28.3964 43.18 28.3964 43.18 28.5719 43.2599C29.8888 43.7901 31.7625 43.8163 33.0908 43.2725C34.3121 42.6115 34.6672 41.5505 35.1238 40.3159C35.4664 40.4004 35.4664 40.4004 35.8159 40.4866C35.902 41.506 35.7151 42.2013 35.1238 43.0484C34.3253 43.9343 33.3525 44.4785 32.1527 44.6342C31.7645 44.6539 31.3814 44.6566 30.9929 44.6495C30.7876 44.6469 30.7876 44.6469 30.5782 44.6442C28.752 44.5964 27.4724 44.034 25.9535 43.0484C25.8737 43.1164 25.7938 43.1844 25.7116 43.2545C23.8908 44.7143 21.8198 44.8067 19.5517 44.5854C18.372 44.326 17.4077 43.5882 16.6103 42.7068C16.1926 42.0579 16.0201 41.4291 16.0912 40.6574C16.4338 40.4884 16.4338 40.4884 16.7833 40.3159C16.9571 40.6499 17.13 40.9844 17.3024 41.3192C17.4469 41.5986 17.4469 41.5986 17.5943 41.8836C17.8214 42.3653 17.8214 42.3653 17.8214 42.7068C19.4621 43.5514 21.2074 43.8584 23.029 43.4366C23.9765 43.127 24.6404 42.8001 25.2614 42.0237C25.4934 41.5658 25.4552 41.2154 25.4541 40.7027C25.4541 40.4976 25.4541 40.2925 25.4541 40.0811C25.4532 39.8587 25.4523 39.6364 25.4514 39.4072C25.451 39.178 25.4508 38.9487 25.4506 38.7195C25.45 38.1158 25.4483 37.5122 25.4463 36.9086C25.4446 36.2927 25.4438 35.6768 25.4429 35.061C25.4411 33.8524 25.4381 32.6438 25.4345 31.4352C25.303 31.3654 25.1715 31.2957 25.036 31.2238C24.8639 31.1319 24.6919 31.0401 24.5146 30.9455C24.3439 30.8546 24.1731 30.7637 23.9972 30.6701C22.9083 30.0635 21.8527 29.2235 21.4549 28.0195C21.3684 27.4965 21.3684 27.4965 21.4549 26.9948C22.5104 25.5834 24.1048 25.3477 25.7697 25.3831Z" fill="#FF723A"/>
<path d="M26.9917 22.3837C27.5621 22.44 27.7915 22.49 28.2028 22.896C28.1067 23.674 28.1067 23.674 27.8568 23.9207C27.3485 23.9527 27.3485 23.9527 26.8186 23.9207C26.7044 23.808 26.5902 23.6953 26.4726 23.5791C26.5296 23.016 26.5803 22.7897 26.9917 22.3837Z" fill="#FF723A"/>
<path d="M24.5801 22.4264C24.9154 22.5545 24.9154 22.5545 25.2614 22.896C25.1965 23.4297 25.1965 23.4297 25.0884 23.9207C24.591 24.0275 24.591 24.0275 24.0503 24.0915C23.7042 23.7499 23.7042 23.7499 23.6501 23.2376C23.668 23.0685 23.6858 22.8994 23.7042 22.7252C24.2233 22.3837 24.2233 22.3837 24.5801 22.4264Z" fill="#FF723A"/>
<path d="M28.7219 40.4866C29.0787 40.5613 29.0787 40.5613 29.414 40.6574C29.3569 40.9391 29.2998 41.2209 29.2409 41.5113C28.9555 41.4549 28.67 41.3986 28.3758 41.3405C28.5272 40.6787 28.5272 40.6787 28.7219 40.4866Z" fill="#FF723A"/>
<path d="M23.0121 40.4866C23.369 40.5613 23.369 40.5613 23.7042 40.6574C23.6471 40.9391 23.59 41.2209 23.5312 41.5113C23.2457 41.4549 22.9602 41.3986 22.6661 41.3405C22.8175 40.6787 22.8175 40.6787 23.0121 40.4866Z" fill="#FF723A"/>
<path d="M31.6633 40.6575C31.9532 40.7063 32.2419 40.763 32.5284 40.8283C32.4713 41.0537 32.4142 41.2791 32.3554 41.5114C32.127 41.5677 31.8986 41.6241 31.6633 41.6822C31.5972 41.3993 31.5398 41.1144 31.4903 40.8283C31.5474 40.7719 31.6045 40.7155 31.6633 40.6575Z" fill="#FF723A"/>
<path d="M19.8977 40.6575C20.1261 40.6575 20.3545 40.6575 20.5898 40.6575C20.6979 40.9777 20.6979 40.9777 20.7628 41.3406C20.6486 41.4533 20.5344 41.566 20.4168 41.6822C20.0491 41.6181 20.0491 41.6181 19.7247 41.5114C19.7818 41.2296 19.8389 40.9478 19.8977 40.6575Z" fill="#FF723A"/>
<path d="M30.4522 38.4373C30.7376 38.4373 31.0231 38.4373 31.3173 38.4373C31.2602 38.719 31.2031 39.0008 31.1442 39.2912C30.8588 39.2348 30.5733 39.1785 30.2791 39.1204C30.3362 38.895 30.3933 38.6695 30.4522 38.4373Z" fill="#FF723A"/>
<path d="M20.9358 38.4373C21.2213 38.4936 21.5068 38.55 21.8009 38.608C21.7438 38.8335 21.6867 39.0589 21.6279 39.2912C21.3424 39.2348 21.0569 39.1785 20.7628 39.1204C20.8199 38.895 20.877 38.6695 20.9358 38.4373Z" fill="#FF723A"/>
</svg>
