<svg width="63" height="76" viewBox="0 0 63 76" fill="none" xmlns="http://www.w3.org/2000/svg">
<path d="M14.9374 0.00122672C15.2392 0.000619493 15.2392 0.000619493 15.5471 0C15.7547 0.00499274 15.9624 0.00998547 16.1764 0.0151295C16.3849 0.0128355 16.5934 0.0105416 16.8082 0.00817811C18.3214 0.0234229 18.3214 0.023423 18.9501 0.479493C19.4088 1.10168 19.4248 1.47516 19.4399 2.24285C19.4466 2.48574 19.4534 2.72863 19.4604 2.97888C19.4633 3.23148 19.4663 3.48409 19.4694 3.74435C19.4756 4.00019 19.4818 4.25604 19.4882 4.51963C19.5031 5.151 19.5141 5.7822 19.5219 6.41368C20.1355 6.60368 20.2944 6.65189 20.9093 6.38751C21.2356 6.1932 21.2356 6.1932 21.5685 5.99496C21.6914 5.92238 21.8144 5.8498 21.941 5.77502C22.3967 5.50341 22.8487 5.22636 23.3003 4.94816C23.4959 4.82777 23.6915 4.70737 23.893 4.58332C24.9691 3.91902 26.0427 3.25087 27.114 2.57897C27.3165 2.45263 27.519 2.32629 27.7276 2.19613C28.1433 1.9317 28.555 1.66076 28.9627 1.38425C29.2628 1.183 29.2628 1.183 29.569 0.977693C29.7463 0.855725 29.9236 0.733757 30.1063 0.608094C30.7624 0.28566 31.1831 0.267602 31.9067 0.342254C32.3366 0.497894 32.3366 0.497894 32.7234 0.719265C32.8702 0.801729 33.0169 0.884194 33.1681 0.969157C33.401 1.10576 33.401 1.10576 33.6385 1.24512C33.888 1.38759 33.888 1.38759 34.1425 1.53294C35.7447 2.45441 37.3204 3.41929 38.8937 4.38899C40.0513 5.0996 41.214 5.80192 42.3761 6.50528C42.5036 6.58246 42.631 6.65965 42.7623 6.73918C44.319 7.68182 45.8776 8.62122 47.4402 9.55408C49.9793 11.0703 52.5088 12.6021 55.036 14.138C55.419 14.3706 55.8022 14.603 56.1854 14.8354C56.8087 15.2135 57.4315 15.5925 58.0538 15.9722C58.3972 16.1815 58.7412 16.39 59.0851 16.5985C62.265 18.5431 62.265 18.5431 62.9738 19.6033C62.9738 19.8106 62.9738 20.0179 62.9738 20.2314C61.885 20.8868 60.9823 20.969 59.7464 21.0034C59.5718 21.0106 59.3973 21.0177 59.2175 21.0251C58.7904 21.0422 58.3631 21.0559 57.9359 21.0689C57.658 21.623 57.6991 22.0387 57.6984 22.6595C57.6975 22.9087 57.6967 23.1579 57.6958 23.4147C57.6959 23.6895 57.6961 23.9644 57.6962 24.2475C57.6955 24.5388 57.6948 24.83 57.694 25.1213C57.6923 25.7494 57.6912 26.3775 57.6905 27.0056C57.6893 27.9988 57.6858 28.992 57.6819 29.9852C57.6805 30.3251 57.6792 30.665 57.6779 31.0048C57.6772 31.1751 57.6765 31.3453 57.6759 31.5207C57.667 33.8335 57.6601 36.1463 57.6575 38.459C57.6558 40.0184 57.6511 41.5777 57.643 43.1371C57.6388 43.9624 57.6362 44.7877 57.6373 45.6131C57.6382 46.3896 57.6353 47.1661 57.6295 47.9427C57.6273 48.3633 57.6294 48.7838 57.6315 49.2044C57.6289 49.4554 57.6263 49.7064 57.6236 49.9649C57.6228 50.2915 57.6228 50.2915 57.622 50.6247C57.4878 51.3743 57.2077 51.7253 56.6764 52.2634C55.563 52.6336 54.3644 52.5366 53.1984 52.5461C52.8855 52.5496 52.5726 52.5553 52.2598 52.5633C51.8063 52.5748 51.3533 52.5793 50.8997 52.5824C50.6289 52.5865 50.3581 52.5907 50.0791 52.595C49.3466 52.4756 48.8517 52.3307 48.3054 51.813C47.7708 50.9342 47.9025 49.8571 47.9158 48.8622C47.9139 48.6104 47.9121 48.3586 47.9101 48.0991C47.9051 47.2932 47.9084 46.4876 47.9125 45.6817C47.9122 44.8826 47.9101 44.0835 47.906 43.2844C47.9039 42.7878 47.9041 42.2912 47.9073 41.7946C47.9065 40.0881 47.7155 38.4538 47.4402 36.7708C47.3977 36.4778 47.3553 36.1848 47.3131 35.8917C46.5787 31.5013 44.5325 27.5489 42.519 23.6173C42.4247 23.4329 42.3305 23.2485 42.2334 23.0586C42.1496 22.8965 42.0657 22.7345 41.9793 22.5675C41.4555 21.4226 41.4278 20.2142 41.5627 18.9753C41.8485 18.2904 42.2981 17.8231 42.8222 17.3004C44.4723 17.1301 45.4842 17.6457 46.8105 18.5827C46.949 18.7122 47.0876 18.8418 47.2303 18.9753C47.2303 19.1134 47.2303 19.2516 47.2303 19.394C47.3689 19.394 47.5074 19.394 47.6501 19.394C47.4735 17.4008 47.175 16.0513 45.6429 14.7104C44.597 13.9857 43.4186 13.9414 42.1924 14.16C41.055 14.619 40.0597 15.2761 39.07 15.9919C37.7622 16.931 36.6305 17.0254 35.0554 16.8817C34.6853 16.7869 34.3178 16.6821 33.9534 16.5676C32.0289 15.9901 30.0338 16.0087 28.1644 16.7377C27.0975 17.0746 25.9537 17.0969 24.9066 16.6903C24.4234 16.4268 23.9686 16.1394 23.5102 15.8349C21.0743 14.289 21.0743 14.289 18.2624 14.16C17.6072 14.4891 17.1058 14.9062 16.5831 15.4161C16.4716 15.5246 16.3601 15.6331 16.2453 15.7449C15.4395 16.6794 15.4399 17.5305 15.4966 18.7324C15.5088 18.8816 15.521 19.0309 15.5335 19.1846C15.6953 19.0661 15.8572 18.9477 16.0239 18.8256C16.2344 18.672 16.4449 18.5185 16.6618 18.3603C16.8712 18.2072 17.0807 18.0542 17.2965 17.8966C18.1622 17.2833 18.6587 17.1934 19.7318 17.3004C20.3566 17.6715 20.8712 18.1077 21.2012 18.7659C21.2383 19.1835 21.2573 19.6029 21.2668 20.0221C21.2785 20.3589 21.2785 20.3589 21.2905 20.7025C21.071 22.6306 19.981 24.3811 19.1258 26.095C18.1663 28.0256 17.2393 29.9556 16.5306 31.9948C16.4755 32.1533 16.4203 32.3118 16.3635 32.4752C15.2887 35.732 15.0872 39.148 15.0711 42.5519C15.0697 42.8018 15.0683 43.0517 15.0669 43.3092C15.0625 44.3478 15.0599 45.3864 15.0654 46.425C15.0685 47.1928 15.0638 47.9603 15.0579 48.728C15.0612 48.9627 15.0644 49.1973 15.0677 49.4391C15.0479 51.0133 15.0479 51.0133 14.6353 51.5955C13.3551 52.7038 11.8339 52.5398 10.2445 52.5576C9.94032 52.5621 9.63615 52.5693 9.33209 52.5791C8.89164 52.5931 8.45176 52.5988 8.01112 52.6028C7.748 52.6081 7.48488 52.6133 7.2138 52.6187C6.45993 52.463 6.14581 52.269 5.67512 51.6654C5.18458 50.6527 5.31791 49.4742 5.3293 48.3742C5.32855 48.0842 5.32734 47.7942 5.32569 47.5042C5.32314 46.8815 5.32386 46.2588 5.32713 45.6361C5.33224 44.6517 5.32982 43.6674 5.32636 42.683C5.32122 40.9496 5.32243 39.2162 5.32506 37.4828C5.32896 34.8708 5.32795 32.2587 5.32085 29.6467C5.31843 28.6678 5.31937 27.6889 5.32296 26.71C5.32461 26.102 5.32372 25.494 5.32218 24.8859C5.32192 24.4688 5.32483 24.0516 5.32783 23.6345C5.32671 23.3871 5.3256 23.1396 5.32445 22.8847C5.32484 22.6692 5.32524 22.4537 5.32565 22.2317C5.28844 21.6935 5.28844 21.6935 4.97848 21.314C4.35057 20.8869 3.59657 20.9729 2.86006 20.9642C1.72823 20.9507 0.943633 20.9363 0 20.2314C0.0230691 19.4491 0.206983 19.1876 0.760933 18.622C2.74712 17.0436 4.97344 15.7377 7.10474 14.3655C10.3774 12.5491 10.3774 12.5491 12.5948 9.76344C12.6778 9.10781 12.6725 8.45995 12.6653 7.79987C12.6679 7.41754 12.6706 7.03522 12.6735 6.65289C12.6743 6.05424 12.6735 5.45567 12.6704 4.85703C12.6686 4.27639 12.6731 3.69606 12.6784 3.11545C12.6756 2.93704 12.6728 2.75862 12.6699 2.5748C12.6811 1.67915 12.7259 1.2874 13.2696 0.543538C13.899 0.10146 14.1794 0.000596618 14.9374 0.00122672Z" fill="currentColor"/>
<path d="M22.4607 60.0098C23.4305 60.0098 24.4003 60.0098 25.3995 60.0098C25.4687 63.3951 25.538 66.7805 25.6094 70.2684C26.82 68.9402 27.9688 67.6542 29.091 66.266C29.7595 65.4698 30.4683 64.7156 31.1801 63.958C32.0374 63.0401 32.8357 62.0886 33.6197 61.1073C34.0059 60.6378 34.0059 60.6378 34.6356 60.0098C35.6747 60.0098 36.7138 60.0098 37.7843 60.0098C37.7843 65.0532 37.7843 70.0967 37.7843 75.293C36.7452 75.293 35.7062 75.293 34.6356 75.293C34.5663 71.9768 34.4971 68.6605 34.4257 65.2438C33.1705 66.4956 33.1705 66.4956 32.038 67.8215C31.4193 68.5881 30.7876 69.3321 30.1225 70.059C29.4647 70.779 28.8353 71.5138 28.2202 72.2704C28.0624 72.4598 27.9047 72.6493 27.7421 72.8445C27.2851 73.3973 27.2851 73.3973 26.9074 73.9731C26.5277 74.4948 26.5277 74.4948 25.6094 75.293C24.5703 75.293 23.5312 75.293 22.4607 75.293C22.4607 70.2495 22.4607 65.2061 22.4607 60.0098Z" fill="currentColor"/>
<path d="M5.45776 60.0098C10.5146 60.0098 15.5714 60.0098 20.7814 60.0098C20.7814 65.0532 20.7814 70.0967 20.7814 75.293C19.7423 75.293 18.7032 75.293 17.6327 75.293C17.6327 71.2859 17.6327 67.2787 17.6327 63.1502C14.654 63.1502 11.6754 63.1502 8.60645 63.1502C8.60645 67.1573 8.60645 71.1644 8.60645 75.293C7.56738 75.293 6.52832 75.293 5.45776 75.293C5.45776 70.2495 5.45776 65.2061 5.45776 60.0098Z" fill="currentColor"/>
<path d="M31.2638 24.327C31.4579 24.3256 31.6521 24.3241 31.8521 24.3225C33.4592 24.3371 35.1069 24.5655 36.446 25.5178C36.9445 26.0935 36.9445 26.0935 37.102 26.7739C36.73 28.6288 35.3087 30.0511 33.7959 31.1181C33.3081 31.3323 32.8185 31.5421 32.3265 31.7462C32.3021 33.3623 32.2835 34.9784 32.2721 36.5946C32.2666 37.3452 32.2592 38.0956 32.2473 38.8461C32.2358 39.571 32.2296 40.2958 32.2269 41.0208C32.224 41.4307 32.2158 41.8405 32.2076 42.2503C32.1686 43.7768 32.1686 43.7768 32.8297 45.0966C33.2972 45.4965 33.6825 45.7998 34.2419 46.0481C34.4505 46.144 34.4505 46.144 34.6634 46.2419C36.2611 46.892 38.5342 46.924 40.1457 46.2575C41.6274 45.4471 42.0582 44.1465 42.6122 42.6329C43.0278 42.7366 43.0278 42.7366 43.4518 42.8423C43.5562 44.0919 43.3296 44.9442 42.6122 45.9827C41.6435 47.0687 40.4632 47.7359 39.0076 47.9267C38.5367 47.9508 38.0719 47.9542 37.6005 47.9454C37.3515 47.9422 37.3515 47.9422 37.0975 47.939C34.8819 47.8804 33.3295 47.1909 31.4868 45.9827C31.3899 46.0661 31.2931 46.1495 31.1933 46.2354C28.9843 48.0249 26.4717 48.1382 23.72 47.8669C22.2889 47.5489 21.119 46.6444 20.1515 45.564C19.6448 44.7685 19.4356 43.9977 19.5218 43.0516C19.9374 42.8444 19.9374 42.8444 20.3614 42.6329C20.5724 43.0424 20.7821 43.4525 20.9912 43.8629C21.1665 44.2054 21.1665 44.2054 21.3454 44.5548C21.6209 45.1452 21.6209 45.1452 21.6209 45.564C23.6114 46.5994 25.7288 46.9756 27.9388 46.4586C29.0883 46.0791 29.8937 45.6784 30.6472 44.7265C30.9286 44.1652 30.8822 43.7356 30.8809 43.1071C30.8809 42.8557 30.8809 42.6042 30.8809 42.3451C30.8798 42.0725 30.8787 41.7999 30.8776 41.5191C30.8772 41.238 30.8769 40.957 30.8767 40.676C30.8759 39.936 30.8738 39.196 30.8715 38.456C30.8693 37.701 30.8684 36.946 30.8673 36.191C30.8651 34.7094 30.8615 33.2278 30.8571 31.7462C30.6975 31.6607 30.538 31.5752 30.3737 31.4871C30.1649 31.3745 29.9562 31.2619 29.7411 31.1459C29.5339 31.0345 29.3268 30.9231 29.1134 30.8083C27.7924 30.0647 26.5116 29.0349 26.0291 27.559C25.9241 26.9179 25.9241 26.9179 26.0291 26.3029C27.3095 24.5726 29.244 24.2837 31.2638 24.327Z" fill="currentColor"/>
<path fill-rule="evenodd" clip-rule="evenodd" d="M52.4961 59.9045C54.1054 59.9129 55.5301 60.0543 56.7979 61.1281C57.9008 62.3197 58.0129 63.7943 58.001 65.3351C57.9995 65.5709 57.9997 65.5712 57.9981 65.8117C57.9606 67.568 57.5204 68.7985 56.2569 70.0588C55.0677 70.8686 53.8866 70.7599 52.5039 70.7267C52.2795 70.7239 52.0546 70.7209 51.8233 70.718C51.2718 70.7106 50.7204 70.6987 50.169 70.6867V75.2932H47.0205V70.6867C46.6867 70.694 46.3527 70.7017 46.0088 70.7092C45.5677 70.7151 45.1257 70.7212 44.6846 70.7267C44.3556 70.7346 44.3553 70.7343 44.0196 70.7424C42.6175 70.7556 41.6571 70.6685 40.5489 69.7355C38.9964 67.9444 39.1122 65.8196 39.2539 63.5685C39.4549 62.2515 39.924 61.4985 40.9717 60.6779C41.806 60.1321 42.3858 59.957 43.3946 59.9494C43.7571 59.9454 43.7572 59.9447 44.127 59.9406C44.3876 59.9401 44.6485 59.9401 44.917 59.9396C45.3207 59.9375 45.3209 59.9369 45.7325 59.9348C46.3026 59.9322 46.8733 59.9316 47.4434 59.9318C48.1694 59.9319 48.8952 59.9264 49.6211 59.9191C50.3184 59.9133 51.0156 59.9138 51.7129 59.9133C51.9714 59.9103 52.2299 59.9076 52.4961 59.9045ZM53.2237 63.0891C52.9782 63.0915 52.9779 63.0916 52.7373 63.0939C52.5288 63.0998 52.3264 63.1048 52.1241 63.1105C51.4594 63.1239 50.8141 63.1376 50.169 63.1506V67.5471C51.1562 67.5735 51.1564 67.5729 52.1241 67.5988C53.0209 67.6326 53.8544 67.7753 54.5948 67.217C54.7874 66.7094 54.7875 66.7087 54.8711 66.008C54.8695 65.7437 54.8679 65.4872 54.8662 65.2307C54.8712 64.4514 54.8707 64.4513 54.7871 63.7785C54.4551 63.3316 54.275 63.1698 53.7198 63.0793C53.4692 63.0843 53.4691 63.0841 53.2237 63.0891ZM43.9658 63.0891C43.3859 63.0774 43.1314 63.0757 42.6641 63.426C42.4024 63.7782 42.402 63.7783 42.3184 64.4514C42.3201 64.7163 42.3216 64.9735 42.3233 65.2307C42.3187 65.9599 42.3358 66.5343 42.5948 67.217C43.1543 67.6389 43.1547 67.6392 44.4522 67.6223C44.7618 67.6106 44.7618 67.6102 45.0655 67.5988C45.7301 67.581 46.3754 67.5643 47.0205 67.5471V63.1506C46.0334 63.1307 46.0331 63.13 45.0655 63.1105C44.7557 63.1018 44.7556 63.1025 44.4522 63.0939C44.2869 63.0923 44.1262 63.0906 43.9658 63.0891Z" fill="currentColor"/>
<path d="M32.7462 20.6501C33.4383 20.7192 33.7166 20.7805 34.2156 21.2782C34.099 22.232 34.099 22.232 33.7958 22.5344C33.1791 22.5736 33.1791 22.5736 32.5363 22.5344C32.3977 22.3962 32.2592 22.258 32.1165 22.1157C32.1857 21.4254 32.2472 21.1479 32.7462 20.6501Z" fill="currentColor"/>
<path d="M29.8207 20.7025C30.2274 20.8595 30.2274 20.8595 30.6472 21.2782C30.5685 21.9325 30.5685 21.9325 30.4373 22.5344C29.8338 22.6652 29.8338 22.6652 29.1778 22.7437C28.758 22.325 28.758 22.325 28.6924 21.6969C28.714 21.4897 28.7357 21.2824 28.758 21.0689C29.3877 20.6501 29.3877 20.6501 29.8207 20.7025Z" fill="currentColor"/>
<path d="M34.8454 42.8423C35.2783 42.9339 35.2783 42.9339 35.685 43.0516C35.6157 43.3971 35.5465 43.7425 35.4751 44.0984C35.1287 44.0294 34.7824 43.9603 34.4255 43.8891C34.6092 43.0778 34.6092 43.0778 34.8454 42.8423Z" fill="currentColor"/>
<path d="M27.9184 42.8423C28.3513 42.9339 28.3513 42.9339 28.758 43.0516C28.6887 43.3971 28.6195 43.7425 28.5481 44.0984C28.2017 44.0294 27.8554 43.9603 27.4985 43.8891C27.6822 43.0778 27.6822 43.0778 27.9184 42.8423Z" fill="currentColor"/>
<path d="M38.414 43.0516C38.7657 43.1115 39.1159 43.181 39.4636 43.261C39.3943 43.5374 39.325 43.8137 39.2537 44.0984C38.9766 44.1675 38.6995 44.2366 38.414 44.3078C38.3338 43.9611 38.2641 43.6118 38.2041 43.261C38.2734 43.1919 38.3426 43.1228 38.414 43.0516Z" fill="currentColor"/>
<path d="M24.1398 43.0516C24.4169 43.0516 24.694 43.0516 24.9795 43.0516C25.1107 43.4442 25.1107 43.4442 25.1894 43.8891C25.0509 44.0273 24.9123 44.1654 24.7696 44.3078C24.3235 44.2293 24.3235 44.2293 23.9299 44.0984C23.9992 43.753 24.0685 43.4075 24.1398 43.0516Z" fill="currentColor"/>
<path d="M36.9445 40.33C37.2909 40.33 37.6372 40.33 37.9941 40.33C37.9248 40.6754 37.8556 41.0208 37.7842 41.3768C37.4378 41.3077 37.0915 41.2386 36.7346 41.1674C36.8039 40.891 36.8732 40.6147 36.9445 40.33Z" fill="currentColor"/>
<path d="M25.3994 40.33C25.7457 40.399 26.0921 40.4681 26.4489 40.5393C26.3797 40.8157 26.3104 41.092 26.239 41.3768C25.8927 41.3077 25.5463 41.2386 25.1895 41.1674C25.2587 40.891 25.328 40.6147 25.3994 40.33Z" fill="currentColor"/>
</svg>
