<svg width="36" height="36" viewBox="0 0 36 36" fill="none" xmlns="http://www.w3.org/2000/svg">
<path d="M16.4093 3.37508C16.8312 2.95327 17.4034 2.71631 18 2.71631C18.5966 2.71631 19.1688 2.95327 19.5908 3.37508L24.75 8.53433V5.62508C24.75 5.32671 24.8685 5.04056 25.0795 4.82958C25.2905 4.6186 25.5766 4.50008 25.875 4.50008H28.125C28.4234 4.50008 28.7095 4.6186 28.9205 4.82958C29.1315 5.04056 29.25 5.32671 29.25 5.62508V13.0343L34.5465 18.3286C34.7575 18.5398 34.8759 18.8262 34.8756 19.1247C34.8754 19.4233 34.7566 19.7095 34.5454 19.9205C34.3341 20.1314 34.0478 20.2498 33.7492 20.2496C33.4507 20.2494 33.1645 20.1306 32.9535 19.9193L18 4.96583L3.04652 19.9193C2.83557 20.1306 2.54935 20.2494 2.25081 20.2496C1.95228 20.2498 1.66589 20.1314 1.45464 19.9205C1.2434 19.7095 1.1246 19.4233 1.12439 19.1247C1.12418 18.8262 1.24257 18.5398 1.45352 18.3286L16.4093 3.37508Z" fill="#F0E7D6"/>
<path d="M31.5 20.9092L18 7.40918L4.5 20.9092V30.3749C4.5 31.27 4.85558 32.1285 5.48851 32.7614C6.12145 33.3944 6.97989 33.7499 7.875 33.7499H28.125C29.0201 33.7499 29.8786 33.3944 30.5115 32.7614C31.1444 32.1285 31.5 31.27 31.5 30.3749V20.9092ZM18 19.0844C21.744 15.3202 31.1062 21.9059 18 30.3749C4.89375 21.9059 14.256 15.3202 18 19.0844Z" fill="#F0E7D6"/>
</svg>
