<svg width="36" height="36" viewBox="0 0 36 36" fill="none" xmlns="http://www.w3.org/2000/svg">
<mask id="mask0_57_211" style="mask-type:luminance" maskUnits="userSpaceOnUse" x="2" y="6" width="31" height="24">
<path d="M21 6H15C9.34351 6 6.51451 6 4.75801 7.758C3.49201 9.0225 3.13801 10.8435 3.03901 13.875H32.961C32.862 10.8435 32.508 9.0225 31.242 7.758C29.4855 6 26.6565 6 21 6ZM15 30H21C26.6565 30 29.4855 30 31.242 28.242C32.9985 26.484 33 23.6565 33 18C33 17.338 32.999 16.713 32.997 16.125H3.00301C3.00001 16.713 2.99901 17.338 3.00001 18C3.00001 23.6565 3.00001 26.4855 4.75801 28.242C6.51601 29.9985 9.34351 30 15 30Z" fill="white"/>
<path fill-rule="evenodd" clip-rule="evenodd" d="M7.875 24C7.875 23.7016 7.99353 23.4155 8.2045 23.2045C8.41548 22.9935 8.70163 22.875 9 22.875H15C15.2984 22.875 15.5845 22.9935 15.7955 23.2045C16.0065 23.4155 16.125 23.7016 16.125 24C16.125 24.2984 16.0065 24.5845 15.7955 24.7955C15.5845 25.0065 15.2984 25.125 15 25.125H9C8.70163 25.125 8.41548 25.0065 8.2045 24.7955C7.99353 24.5845 7.875 24.2984 7.875 24ZM17.625 24C17.625 23.7016 17.7435 23.4155 17.9545 23.2045C18.1655 22.9935 18.4516 22.875 18.75 22.875H21C21.2984 22.875 21.5845 22.9935 21.7955 23.2045C22.0065 23.4155 22.125 23.7016 22.125 24C22.125 24.2984 22.0065 24.5845 21.7955 24.7955C21.5845 25.0065 21.2984 25.125 21 25.125H18.75C18.4516 25.125 18.1655 25.0065 17.9545 24.7955C17.7435 24.5845 17.625 24.2984 17.625 24Z" fill="black"/>
</mask>
<g mask="url(#mask0_57_211)">
<path d="M0 0H36V36H0V0Z" fill="#F0E7D6"/>
</g>
</svg>
