<svg width="36" height="36" viewBox="0 0 36 36" fill="none" xmlns="http://www.w3.org/2000/svg">
<path d="M14.247 8.6894C16.377 5.8334 19.5795 4.9994 22.5255 5.8019C25.7055 6.6674 28.5015 9.3989 29.43 13.2029C29.478 13.3979 29.5195 13.5929 29.5545 13.7879C28.2141 13.3103 26.7562 13.2735 25.3935 13.6829C23.463 12.2549 21.072 12.0149 18.9465 12.7979C16.284 13.7804 14.205 16.2719 13.7235 19.4069C13.1085 23.4209 15.5535 27.0269 19.011 30.0929L19.593 30.5969C19.1235 30.6299 18.6465 30.5564 18.1905 30.4589C17.9561 30.4085 17.7231 30.3525 17.4915 30.2909L16.686 30.0659C9.52496 28.0514 4.73096 24.8999 3.35546 20.1899C2.25746 16.4309 3.31346 12.6674 5.63546 10.3274C7.78646 8.1599 10.9755 7.2809 14.247 8.6894ZM16.689 19.8614C17.331 15.6734 22.1745 13.6094 24.6615 17.2034C24.6853 17.2368 24.7213 17.2595 24.7618 17.2665C24.8022 17.2735 24.8438 17.2643 24.8775 17.2409C28.443 14.7149 32.2875 18.3104 31.458 22.4654C30.978 24.8754 28.743 26.8754 24.753 28.4654L24.1005 28.7204L23.706 28.8824C23.3655 29.0159 23.0055 29.1224 22.68 29.0654C22.356 29.0084 22.0545 28.7834 21.78 28.5434L21.315 28.1234C17.845 25.1374 16.303 22.3834 16.689 19.8614Z" fill="#F0E7D6"/>
</svg>
