<svg width="36" height="36" viewBox="0 0 36 36" fill="none" xmlns="http://www.w3.org/2000/svg">
<path d="M29.0303 6.21959C29.1709 6.36024 29.2498 6.55097 29.2498 6.74984C29.2498 6.94871 29.1709 7.13944 29.0303 7.28009L21.3105 14.9998H19.1895L16.5645 17.6248H9.6165C9.35129 16.7564 9.17291 15.8638 9.084 14.9601C8.8355 14.9726 8.5575 14.9788 8.25 14.9788C7.377 14.9788 6.03 14.9203 5.625 14.6248C4.875 13.6311 4.5 11.6458 4.5 11.6458C4.5 11.6458 6.59025 10.9326 7.5 10.6101C7.5 8.19209 10.626 6.81209 12.2145 8.84984C12.609 8.84759 13.059 8.97434 13.4805 9.23309C14.2425 9.70109 14.5305 11.8101 14.3655 12.7648C15.5692 14.1823 17.109 14.7643 19.125 14.9788L19.2023 14.9871L27.9697 6.21959C28.1104 6.07899 28.3011 6 28.5 6C28.6989 6 28.8896 6.07899 29.0303 6.21959ZM21.2228 15.0883L17.625 18.6853V23.7216C19.674 23.4478 21.4252 23.0226 23.625 21.7498C25.2285 24.6891 26.5717 25.5336 27.261 25.9678C27.5385 26.1426 27.711 26.2506 27.75 26.4021C27.84 26.7471 27.9345 26.9998 28.008 27.1971C28.101 27.4438 28.161 27.6043 28.1385 27.7498H27.75C27.5511 27.7498 27.3603 27.8289 27.2197 27.9695C27.079 28.1102 27 28.3009 27 28.4998C27 28.6988 27.079 28.8895 27.2197 29.0302C27.3603 29.1708 27.5511 29.2498 27.75 29.2498H29.25C29.4489 29.2498 29.6397 29.1708 29.7803 29.0302C29.921 28.8895 30 28.6988 30 28.4998V25.1076C30 23.6248 27.75 19.6708 27.75 19.6708L31.125 23.9998C31.4287 24.1896 31.839 23.8251 31.5 23.2498C31.3582 22.8718 31.2037 22.3768 31.0282 21.8158C30.1927 19.1406 28.893 14.9788 26.3392 14.9788C25.9695 14.9788 25.4377 14.9983 24.8123 15.0201C23.772 15.0576 22.4715 15.1048 21.2228 15.0883ZM16.0725 23.9031L16.125 23.8978V19.1248H10.1895C10.7948 20.4396 11.5192 21.3913 12.081 22.1293C12.1855 22.2658 12.2835 22.3958 12.375 22.5193C12.7343 23.0038 13.7812 26.1231 12.2213 27.7498H12C11.8011 27.7498 11.6103 27.8289 11.4697 27.9695C11.329 28.1102 11.25 28.3009 11.25 28.4998C11.25 28.6988 11.329 28.8895 11.4697 29.0302C11.6103 29.1708 11.8011 29.2498 12 29.2498H14.25C14.4146 29.2499 14.5746 29.1958 14.7054 29.0959C14.8362 28.996 14.9305 28.8559 14.9738 28.6971H14.9752C14.9792 28.6971 14.9828 28.6963 14.9858 28.6948C15.0173 28.6783 15.015 28.5928 15.0082 28.4008C15.0029 28.2524 15.0002 28.1039 15 27.9553V24.0186L15.6998 23.9436L15.705 23.9428L16.0725 23.9031Z" fill="#F0E7D6"/>
</svg>
