<svg width="36" height="36" viewBox="0 0 36 36" fill="none" xmlns="http://www.w3.org/2000/svg">
<path d="M26.367 6.648L23.367 5.073C20.733 3.6915 19.416 3 18 3C16.584 3 15.267 3.69 12.633 5.073L12.1515 5.3265L25.536 12.975L31.56 9.96C30.591 8.862 29.028 8.0415 26.367 6.645M32.622 11.946L26.625 14.946V19.5C26.625 19.7984 26.5065 20.0845 26.2955 20.2955C26.0845 20.5065 25.7984 20.625 25.5 20.625C25.2016 20.625 24.9155 20.5065 24.7045 20.2955C24.4935 20.0845 24.375 19.7984 24.375 19.5V16.071L19.125 18.696V32.856C20.202 32.5875 21.4275 31.9455 23.367 30.927L26.367 29.352C29.5935 27.6585 31.2075 26.8125 32.1045 25.29C33 23.769 33 21.8745 33 18.09V17.9145C33 15.075 33 13.299 32.622 11.946ZM16.875 32.856V18.696L3.378 11.946C3 13.299 3 15.075 3 17.9115V18.087C3 21.8745 3 23.769 3.8955 25.29C4.7925 26.8125 6.4065 27.66 9.633 29.3535L12.633 30.927C14.5725 31.9455 15.798 32.5875 16.875 32.856ZM4.44 9.9615L18 16.7415L23.1165 14.184L9.7875 6.567L9.633 6.648C6.9735 8.043 5.409 8.8635 4.44 9.963" fill="#F0E7D6"/>
</svg>
